<svg width="327" height="328" viewBox="0 0 327 328" fill="none" xmlns="http://www.w3.org/2000/svg">
<path d="M100.604 281.231H167.68H238.754C257.814 281.231 275.22 270.382 283.653 253.245L304.757 210.359C311.448 196.762 301.578 180.848 286.455 180.848C272.002 180.848 262.129 166.2 267.52 152.756L278.426 125.563C287.643 102.579 268.458 78.2553 244.024 81.9474C235.759 83.1964 227.335 81.148 220.559 76.2417L188.548 53.0635C169.792 39.4832 143.286 49.205 137.7 71.7132C134.904 82.982 126.366 91.9249 115.259 95.2195L94.2093 101.463C74.571 107.288 64.961 129.496 74.1355 147.853C81.589 162.766 76.7597 180.91 62.8861 190.118L57.7299 193.54C35.9942 207.966 33.6889 239.08 53.0601 256.567L65.3548 267.665C75.029 276.399 87.5862 281.231 100.604 281.231Z" fill="#E7E8FF"/>
<path d="M268.976 250.094C261.526 251.791 265.74 272.076 268.891 282.381C269 282.74 269.33 282.977 269.706 282.977H276.921C277.348 282.977 277.711 282.663 277.768 282.239C279.881 266.388 278.327 247.963 268.976 250.094Z" fill="#032068"/>
<path d="M302.56 209.138C281.859 207.781 273.426 256.053 271.71 281.222C271.676 281.716 272.07 282.118 272.566 282.118H289.6C289.914 282.118 290.199 281.955 290.349 281.678C303.24 257.778 323.381 210.503 302.56 209.138Z" fill="white"/>
<path fill-rule="evenodd" clip-rule="evenodd" d="M272.567 281.259H289.598C296.029 269.335 304.249 251.614 308.267 236.734C310.282 229.272 311.208 222.637 310.401 217.83C310 215.439 309.182 213.569 307.923 212.263C306.678 210.971 304.929 210.154 302.503 209.995C297.718 209.681 293.554 212.214 289.921 216.821C286.284 221.434 283.273 228.017 280.831 235.499C275.953 250.443 273.424 268.715 272.567 281.259ZM288.573 215.758C292.397 210.908 297.051 207.917 302.616 208.281C305.395 208.464 307.571 209.423 309.16 211.071C310.734 212.705 311.658 214.939 312.095 217.546C312.965 222.733 311.954 229.666 309.925 237.181C305.856 252.25 297.563 270.11 291.104 282.085C290.798 282.652 290.216 282.976 289.599 282.976H272.565C271.598 282.976 270.784 282.179 270.853 281.163C271.713 268.54 274.258 250.103 279.199 234.966C281.667 227.404 284.754 220.601 288.573 215.758Z" fill="#032068"/>
<path d="M312.936 241.412C300.836 239.704 290.458 267.167 286.498 281.912C286.353 282.454 286.765 282.976 287.326 282.976H296.569C296.829 282.976 297.069 282.865 297.232 282.663C307.738 269.568 325.235 243.149 312.936 241.412Z" fill="#032068"/>
<path fill-rule="evenodd" clip-rule="evenodd" d="M298.19 228.782L302.092 216.262L300.453 215.751L292.478 241.336L287.852 233.184L286.359 234.032L291.778 243.582L283.93 268.762L279.665 262.325L278.233 263.274L283.271 270.876L279.847 281.862L281.486 282.373L288.472 259.96L297.123 255.403L296.323 253.884L289.196 257.638L297.442 231.182L304.702 227.056L303.853 225.563L298.19 228.782Z" fill="#032068"/>
<path d="M142.898 72.3135C142.898 69.1499 145.463 66.5853 148.627 66.5853H280.554C283.717 66.5853 286.282 69.1499 286.282 72.3135V245.453C286.282 248.616 283.717 251.181 280.554 251.181H148.627C145.463 251.181 142.898 248.616 142.898 245.453V72.3135Z" fill="white"/>
<path fill-rule="evenodd" clip-rule="evenodd" d="M142.04 72.3135C142.04 68.6757 144.989 65.7267 148.627 65.7267H280.554C284.192 65.7267 287.141 68.6757 287.141 72.3135V245.453C287.141 249.09 284.192 252.039 280.554 252.039H148.627C144.989 252.039 142.04 249.09 142.04 245.453V72.3135ZM148.627 67.4439C145.937 67.4439 143.757 69.6241 143.757 72.3135V245.453C143.757 248.142 145.937 250.322 148.627 250.322H280.554C283.243 250.322 285.424 248.142 285.424 245.453V72.3135C285.424 69.6241 283.243 67.4439 280.554 67.4439H148.627Z" fill="#032068"/>
<path d="M142.898 72.3135C142.898 69.1499 145.463 66.5853 148.627 66.5853H280.554C283.717 66.5853 286.282 69.1499 286.282 72.3135V86.3328H142.898V72.3135Z" fill="#032068"/>
<path d="M161.02 76.5994C161.02 78.9698 159.099 80.8913 156.728 80.8913C154.358 80.8913 152.437 78.9698 152.437 76.5994C152.437 74.229 154.358 72.3075 156.728 72.3075C159.099 72.3075 161.02 74.229 161.02 76.5994Z" fill="white"/>
<path d="M175.327 76.5994C175.327 78.9698 173.405 80.8913 171.035 80.8913C168.665 80.8913 166.743 78.9698 166.743 76.5994C166.743 74.229 168.665 72.3075 171.035 72.3075C173.405 72.3075 175.327 74.229 175.327 76.5994Z" fill="white"/>
<path d="M189.634 76.5994C189.634 78.9698 187.712 80.8913 185.342 80.8913C182.971 80.8913 181.05 78.9698 181.05 76.5994C181.05 74.229 182.971 72.3075 185.342 72.3075C187.712 72.3075 189.634 74.229 189.634 76.5994Z" fill="white"/>
<path d="M195.272 227.999C195.272 231.318 192.581 234.009 189.262 234.009C185.943 234.009 183.252 231.318 183.252 227.999C183.252 224.68 185.943 221.989 189.262 221.989C192.581 221.989 195.272 224.68 195.272 227.999Z" fill="#E7E8FF"/>
<path d="M247.646 227.999C247.646 231.318 244.955 234.009 241.636 234.009C238.317 234.009 235.626 231.318 235.626 227.999C235.626 224.68 238.317 221.989 241.636 221.989C244.955 221.989 247.646 224.68 247.646 227.999Z" fill="#E7E8FF"/>
<path d="M142.898 85.4741H163.504V123.252C163.504 128.942 158.892 133.555 153.201 133.555C147.511 133.555 142.898 128.942 142.898 123.252V85.4741Z" fill="#2780D2"/>
<path d="M163.505 85.4741H184.111V123.252C184.111 128.942 179.498 133.555 173.808 133.555C168.118 133.555 163.505 128.942 163.505 123.252V85.4741Z" fill="#032068"/>
<path d="M184.11 85.4741H204.716V123.252C204.716 128.942 200.104 133.555 194.413 133.555C188.723 133.555 184.11 128.942 184.11 123.252V85.4741Z" fill="#2780D2"/>
<path d="M204.717 85.4741H224.464V123.681C224.464 129.134 220.044 133.555 214.591 133.555C209.137 133.555 204.717 129.134 204.717 123.681V85.4741Z" fill="#032068"/>
<path d="M224.464 85.4741H245.07V123.252C245.07 128.942 240.457 133.555 234.767 133.555C229.077 133.555 224.464 128.942 224.464 123.252V85.4741Z" fill="#2780D2"/>
<path d="M245.07 85.4741H265.676V123.252C265.676 128.942 261.064 133.555 255.373 133.555C249.683 133.555 245.07 128.942 245.07 123.252V85.4741Z" fill="#032068"/>
<path d="M265.676 85.4741H286.282V123.252C286.282 128.942 281.669 133.555 275.979 133.555C270.289 133.555 265.676 128.942 265.676 123.252V85.4741Z" fill="#2780D2"/>
<path d="M185.194 217.022L175.754 174.093C175.636 173.557 176.044 173.05 176.592 173.05H255.986C256.546 173.05 256.956 173.577 256.818 174.119L245.926 217.048C245.829 217.429 245.486 217.696 245.093 217.696H186.033C185.63 217.696 185.281 217.415 185.194 217.022Z" fill="#E7E8FF"/>
<path d="M173.526 163.422L176.236 175.809C176.322 176.203 176.671 176.484 177.075 176.484H182.175C182.726 176.484 183.135 175.971 183.011 175.434L178.683 156.545C178.593 156.155 178.246 155.878 177.846 155.878H163.075C162.601 155.878 162.217 156.262 162.217 156.737V161.888C162.217 162.362 162.601 162.747 163.075 162.747H172.687C173.091 162.747 173.44 163.028 173.526 163.422Z" fill="#E7E8FF"/>
<path d="M13.2624 145.258L17.7915 177.791C17.8534 178.235 18.2777 178.535 18.7175 178.445L36.1774 174.873C36.5758 174.792 36.8441 174.417 36.793 174.014L32.6753 141.478C32.6186 141.03 32.1939 140.725 31.7514 140.813L13.8801 144.388C13.4764 144.469 13.2056 144.85 13.2624 145.258Z" fill="white"/>
<path fill-rule="evenodd" clip-rule="evenodd" d="M31.5982 140.051C32.4833 139.874 33.3327 140.485 33.4461 141.38L37.5638 173.916C37.6659 174.723 37.1293 175.472 36.3326 175.635L18.8726 179.207C17.9932 179.387 17.1445 178.787 17.0207 177.898L12.4916 145.365C12.378 144.55 12.9196 143.787 13.7269 143.625L31.5982 140.051ZM31.9032 141.576L14.0319 145.151L18.561 177.683L36.021 174.111L31.9032 141.576Z" fill="#032068"/>
<path d="M11.4358 163.513C9.27922 169.121 9.27922 176.023 11.4358 179.906C12.9348 182.605 14.5423 186.367 15.4097 188.534L31.7075 184.22L29.551 176.455L17.9055 179.043L17.0429 173.866C22.6499 172.141 26.1004 171.278 26.1004 163.513C26.1004 156.816 22.2177 156.173 19.1994 156.611C14.5471 157.286 12.7629 160.062 11.4358 163.513Z" fill="#EFCB96"/>
<path d="M96.8358 154.022L94.2479 163.513C92.954 168.258 96.8358 173.866 107.619 173.866C116.245 173.866 117.539 165.814 117.108 161.787L114.951 151.003C117.108 148.846 118.833 147.552 118.833 137.198C118.833 124.257 111.932 119.511 103.737 119.511C95.5419 119.511 88.6409 126.406 88.6406 138.924C88.6404 149.709 94.3917 153.16 96.8358 154.022Z" fill="#EFCB96"/>
<path d="M104.6 169.121C112.536 169.121 116.533 163.944 117.539 161.356C125.159 161.356 142.383 163.685 150.319 173.003C160.239 184.651 172.316 242.457 174.041 252.379C175.421 260.316 173.466 274.667 172.316 280.85C136.373 281.138 63.5384 281.54 59.7429 280.85C55.9473 280.16 55.2859 270.209 55.4297 265.32C49.5352 269.203 35.8484 274.638 28.2573 265.32C18.7684 253.673 11.8674 196.73 12.73 192.416C13.5927 188.102 30.8452 181.2 33.8644 182.494C36.2797 183.529 42.6344 195.292 45.5099 201.044C60.347 167.913 83.8968 160.781 93.817 161.356C94.1045 163.944 96.6636 169.121 104.6 169.121Z" fill="#2780D2"/>
<path d="M75.7017 144.963C69.1458 151.866 69.5196 163.944 70.526 169.121C81.5934 162.479 90.1254 161.307 93.7979 161.46C93.7979 162.238 94.3232 163.757 94.5755 163.793L96.8362 154.023C92.2427 151.738 89.0725 148.415 88.6412 138.493C88.7436 131.129 92.2355 125.12 94.2483 123.394C101.149 122.963 104.6 131.59 106.756 135.042C108.482 137.802 109.776 137.342 110.207 136.767C112.363 131.59 116.245 131.159 117.108 136.767C117.798 141.253 114.52 143.525 112.795 144.101L117.125 162.238C117.261 162.232 117.514 161.577 117.514 161.46C126.044 161.225 135.715 164.113 139.536 165.67C140.83 151.866 130.047 147.12 126.597 138.493C123.146 129.865 127.891 125.551 124.44 119.943C121.883 115.786 117.108 115.198 114.089 114.335C111.07 113.472 109.344 110.021 105.894 108.296C99.8554 106.139 94.1045 111.459 92.5231 115.198C91.5167 115.054 88.6412 115.457 85.1907 118.217C75.2705 125.12 83.8967 136.336 75.7017 144.963Z" fill="#032068"/>
<path d="M63.1936 210.534L55.43 265.751C53.0146 267.132 49.5354 268.052 48.0977 268.34C51.8932 261.783 59.7431 227.07 63.1936 210.534Z" fill="#032068"/>
<path d="M54.567 265.752C41.11 257.47 28.8319 257.412 24.375 258.419C25.2376 262.013 28.9469 269.548 36.8831 270.929C44.8193 272.309 51.9791 268.053 54.567 265.752Z" fill="#032068"/>
<path d="M50.6855 214.417L45.5098 200.612L48.529 195.436L50.6855 214.417Z" fill="#032068"/>
<path d="M142.555 257.986C143.245 266.614 142.268 276.824 141.693 280.85H146.868V269.634C146.868 264.112 141.118 228.221 138.242 210.965C139.392 223.044 141.865 249.359 142.555 257.986Z" fill="#032068"/>
<path d="M173.179 276.968C169.038 267.304 170.591 250.509 172.316 244.182C176.106 260.377 174.477 269.606 173.184 276.934L173.179 276.968Z" fill="#032068"/>
<path d="M105.894 153.591C100.718 154.971 97.6986 154.454 96.8359 154.022L95.542 158.767C101.063 159.458 104.743 155.604 105.894 153.591Z" fill="#032068"/>
<path d="M48.7722 69.8553C48.5156 68.888 49.0917 67.8959 50.059 67.6393L88.7944 57.3645C89.7617 57.1079 90.7538 57.684 91.0104 58.6513L98.9402 88.5462C99.1968 89.5134 98.6207 90.5056 97.6534 90.7622L58.918 101.037C57.9507 101.294 56.9586 100.717 56.702 99.7501L48.7722 69.8553Z" fill="white"/>
<path fill-rule="evenodd" clip-rule="evenodd" d="M48.1888 70.0101C47.8467 68.7204 48.6148 67.3976 49.9045 67.0555L88.6399 56.7807C89.9296 56.4386 91.2525 57.2068 91.5946 58.4965L99.5244 88.3913C99.8665 89.681 99.0983 91.0038 97.8086 91.3459L59.0732 101.621C57.7835 101.963 56.4607 101.195 56.1186 99.905L48.1888 70.0101ZM50.2143 68.2231C49.5694 68.3942 49.1853 69.0556 49.3564 69.7004L57.2862 99.5953C57.4572 100.24 58.1186 100.624 58.7635 100.453L97.4989 90.1783C98.1437 90.0073 98.5278 89.3459 98.3568 88.701L90.427 58.8062C90.2559 58.1613 89.5945 57.7772 88.9497 57.9483L50.2143 68.2231Z" fill="#032068"/>
<path d="M44.2624 64.7432C44.0058 63.776 44.582 62.7838 45.5493 62.5273L90.1784 50.6891C91.1456 50.4325 92.1378 51.0086 92.3943 51.9759L94.5919 60.2605C94.8485 61.2278 94.2723 62.2199 93.3051 62.4765L48.6759 74.3147C47.7087 74.5712 46.7165 73.9951 46.46 73.0278L44.2624 64.7432Z" fill="#032068"/>
<path fill-rule="evenodd" clip-rule="evenodd" d="M43.679 64.8981C43.3369 63.6084 44.1051 62.2855 45.3948 61.9434L90.0239 50.1053C91.3136 49.7632 92.6364 50.5313 92.9785 51.821L95.1761 60.1057C95.5182 61.3953 94.75 62.7182 93.4603 63.0603L48.8312 74.8985C47.5415 75.2406 46.2186 74.4724 45.8765 73.1827L43.679 64.8981ZM45.7045 63.111C45.0596 63.2821 44.6756 63.9435 44.8466 64.5884L47.0441 72.873C47.2152 73.5178 47.8766 73.9019 48.5215 73.7309L93.1506 61.8927C93.7954 61.7216 94.1795 61.0602 94.0085 60.4154L91.8109 52.1308C91.6399 51.4859 90.9785 51.1018 90.3336 51.2729L45.7045 63.111Z" fill="#032068"/>
<path d="M62.4609 58.0413L73.2661 55.1751L76.3928 66.9625L65.5876 69.8287L62.4609 58.0413Z" fill="#2780D2"/>
<path fill-rule="evenodd" clip-rule="evenodd" d="M61.7217 57.6123L73.6944 54.4365L77.1308 67.3915L65.1581 70.5673L61.7217 57.6123ZM63.199 58.4702L66.016 69.09L75.6535 66.5336L72.8365 55.9138L63.199 58.4702Z" fill="#032068"/>
<path fill-rule="evenodd" clip-rule="evenodd" d="M63.2798 51.5466C65.2306 52.4578 66.6535 54.1741 67.4882 55.6378C67.9459 56.4402 67.339 57.3491 66.4884 57.3673C63.4029 57.4331 59.4326 57.3171 56.9053 56.731C56.2702 56.5837 55.6957 56.4001 55.2391 56.166C54.7986 55.9401 54.3703 55.6175 54.1847 55.1404C53.98 54.614 54.1367 54.0896 54.4673 53.6391C54.7881 53.2019 55.3151 52.7659 56.0264 52.3178C58.8143 50.5615 61.2861 50.6153 63.2798 51.5466ZM62.7686 52.6411C61.1652 51.8921 59.1277 51.7917 56.6703 53.3399C56.0088 53.7565 55.6302 54.0962 55.4412 54.3537C55.2663 54.592 55.3028 54.6831 55.31 54.7012C55.3102 54.7016 55.3104 54.702 55.3105 54.7024C55.3355 54.7666 55.4424 54.9127 55.7903 55.0911C56.1222 55.2613 56.5895 55.4177 57.1782 55.5542C59.5293 56.0995 63.3295 56.2235 66.3956 56.161C65.6296 54.8446 64.3841 53.3957 62.7686 52.6411Z" fill="#032068"/>
<path fill-rule="evenodd" clip-rule="evenodd" d="M68.3546 50.2002C67.1119 51.9586 66.7267 54.1544 66.7272 55.8394C66.7275 56.7632 67.7051 57.2517 68.4528 56.8459C71.1653 55.3739 74.5561 53.3053 76.4606 51.5435C76.9392 51.1008 77.3472 50.6566 77.6277 50.227C77.8984 49.8124 78.1104 49.32 78.0351 48.8136C77.9521 48.255 77.5561 47.8772 77.0456 47.6498C76.5503 47.4291 75.8765 47.3116 75.0366 47.2749C71.7447 47.1313 69.6246 48.4032 68.3546 50.2002ZM69.3411 50.8974C70.3624 49.4522 72.0823 48.3552 74.984 48.4818C75.765 48.5158 76.2622 48.6232 76.554 48.7532C76.824 48.8735 76.8374 48.9706 76.8401 48.99C76.8402 48.9904 76.8402 48.9909 76.8403 48.9912C76.8504 49.0594 76.83 49.2392 76.6162 49.5666C76.4123 49.8789 76.084 50.2464 75.6403 50.6568C73.8686 52.2956 70.6294 54.2869 67.9355 55.7522C67.9484 54.2292 68.312 52.3535 69.3411 50.8974Z" fill="#032068"/>
<path d="M37.2567 103.885L37.1568 109.254C37.1508 109.581 36.963 109.877 36.6701 110.022L32.9449 111.863C32.1435 112.259 32.383 113.46 33.2751 113.519L37.4976 113.795C37.8059 113.816 38.0806 113.997 38.2202 114.273L40.3071 118.391C40.6994 119.166 41.8584 118.957 41.9556 118.094L42.4934 113.32C42.5249 113.04 42.6898 112.792 42.9361 112.655L46.2993 110.778C47.0569 110.356 46.8026 109.207 45.9374 109.143L42.1808 108.867C41.8792 108.845 41.6104 108.669 41.4702 108.401L38.9054 103.497C38.4859 102.694 37.2736 102.98 37.2567 103.885Z" fill="#2780D2"/>
<path d="M309.952 164.395L307.544 167.541C307.398 167.732 307.159 167.824 306.925 167.779L303.949 167.211C303.309 167.088 302.923 167.909 303.417 168.342L305.756 170.391C305.926 170.54 306.007 170.771 305.968 170.997L305.381 174.375C305.271 175.01 306.037 175.403 306.471 174.934L308.874 172.338C309.015 172.185 309.219 172.112 309.423 172.14L312.203 172.526C312.83 172.613 313.184 171.817 312.708 171.393L310.64 169.553C310.474 169.405 310.395 169.18 310.431 168.958L311.082 164.9C311.189 164.236 310.358 163.865 309.952 164.395Z" fill="#2780D2"/>
</svg>
