<svg width="327" height="328" viewBox="0 0 327 328" fill="none" xmlns="http://www.w3.org/2000/svg">
<path d="M87.8466 298.75H168.01H254.759C286.402 298.75 304.732 262.96 286.208 237.346C275.019 221.875 276.784 200.573 290.367 187.148L296.374 181.21C321.65 156.228 312.424 113.496 279.085 101.129L161.376 57.465C142.766 50.5618 122.638 63.061 120.612 82.779C118.948 98.9722 104.768 110.96 88.4974 109.93L80.478 109.422C58.1821 108.01 39.3216 125.684 39.3216 147.99V163.692C39.3216 175.984 34.9764 188.017 27.1968 197.544C7.89963 221.175 11.2283 256.309 34.9679 275.487L45.0395 283.624C57.1533 293.411 72.264 298.75 87.8466 298.75Z" fill="#E7E8FF"/>
<path d="M252.222 262.507C242.221 261.848 233.33 286.669 230.552 298.75H237.22C246.11 287.218 262.224 263.166 252.222 262.507Z" fill="#032068"/>
<path d="M249.722 225.851C232.719 224.204 224.857 273.215 223.051 297.926H235.136C247.083 274.588 266.726 227.499 249.722 225.851Z" fill="white"/>
<path fill-rule="evenodd" clip-rule="evenodd" d="M223.795 297.243H234.711C240.651 285.593 248.404 268.246 252.62 253.568C254.755 246.137 255.961 239.462 255.607 234.575C255.43 232.133 254.868 230.207 253.903 228.859C252.958 227.539 251.592 226.719 249.655 226.532C245.798 226.158 242.327 228.634 239.214 233.318C236.115 237.981 233.505 244.646 231.353 252.19C227.138 266.969 224.737 284.926 223.795 297.243ZM238.058 232.568C241.258 227.753 245.145 224.721 249.79 225.171C252.104 225.396 253.843 226.408 255.032 228.07C256.201 229.703 256.8 231.908 256.986 234.477C257.358 239.612 256.095 246.477 253.951 253.941C249.655 268.896 241.736 286.547 235.753 298.235L235.561 298.609H222.308L222.361 297.877C223.266 285.495 225.688 267.015 230.022 251.819C232.187 244.227 234.844 237.404 238.058 232.568Z" fill="#032068"/>
<path fill-rule="evenodd" clip-rule="evenodd" d="M247.886 236.336L239.979 263.594L246.918 260.245L247.525 261.473L239.466 265.362L229.966 298.114L228.637 297.738L233.371 281.417L230.311 272.192L231.625 271.766L234.05 279.077L242.069 251.432L238.251 242.594L239.522 242.057L242.673 249.349L246.557 235.96L247.886 236.336Z" fill="#032068"/>
<path d="M189.423 93.9456L189.257 89.1468C189.227 88.2921 190.311 87.9022 190.833 88.5799L193.693 92.2958C193.866 92.5206 194.137 92.6481 194.42 92.6383L199.549 92.4605C200.375 92.4319 200.781 93.455 200.16 94.0004L196.263 97.4232C196.073 97.5896 195.964 97.8294 195.963 98.0815L195.947 103.78C195.945 104.626 194.866 104.981 194.361 104.301L191.178 100.011C191.023 99.8015 190.784 99.6719 190.524 99.6566L184.722 99.3141C183.868 99.2638 183.581 98.1487 184.304 97.6924L189.014 94.7198C189.278 94.5529 189.434 94.2581 189.423 93.9456Z" fill="white"/>
<path d="M243.805 117.484L244.422 116.061C244.762 115.277 245.909 115.39 246.089 116.226L246.405 117.698C246.465 117.975 246.655 118.207 246.915 118.319L248.64 119.068C249.398 119.397 249.325 120.495 248.53 120.721L246.668 121.25C246.425 121.318 246.224 121.488 246.115 121.716L245.179 123.668C244.813 124.431 243.686 124.288 243.523 123.458L243.147 121.547C243.097 121.291 242.936 121.071 242.708 120.946L240.787 119.889C240.038 119.477 240.258 118.347 241.107 118.245L243.102 118.007C243.413 117.97 243.68 117.77 243.805 117.484Z" fill="white"/>
<path fill-rule="evenodd" clip-rule="evenodd" d="M159.439 113.453C133.501 113.453 112.474 134.488 112.474 160.436V196.599C112.474 198.21 113.778 199.515 115.388 199.515H123.605C125.215 199.515 126.519 198.21 126.519 196.599V159.558C126.519 141.37 141.258 126.626 159.439 126.626C177.621 126.626 192.359 141.37 192.359 159.558V169.376C192.359 170.986 193.664 172.291 195.274 172.291H203.491C205.1 172.291 206.405 170.986 206.405 169.376V160.436C206.405 134.488 185.378 113.453 159.439 113.453Z" fill="#032068"/>
<path d="M94.916 191.892C94.916 190.282 96.2208 188.977 97.8304 188.977H221.048C222.657 188.977 223.962 190.282 223.962 191.892V295.834C223.962 297.444 222.657 298.75 221.048 298.75H97.8304C96.2208 298.75 94.916 297.444 94.916 295.834V191.892Z" fill="white"/>
<path fill-rule="evenodd" clip-rule="evenodd" d="M93.9443 191.892C93.9443 189.746 95.6841 188.005 97.8302 188.005H221.047C223.194 188.005 224.933 189.746 224.933 191.892V295.834C224.933 297.981 223.194 299.722 221.047 299.722H97.8302C95.6841 299.722 93.9443 297.981 93.9443 295.834V191.892ZM97.8302 189.949C96.7571 189.949 95.8873 190.819 95.8873 191.892V295.834C95.8873 296.908 96.7571 297.778 97.8302 297.778H221.047C222.12 297.778 222.99 296.908 222.99 295.834V191.892C222.99 190.819 222.12 189.949 221.047 189.949H97.8302Z" fill="#032068"/>
<path fill-rule="evenodd" clip-rule="evenodd" d="M166.864 246.957C169.563 244.784 171.29 241.452 171.29 237.716C171.29 231.168 165.984 225.86 159.439 225.86C152.894 225.86 147.588 231.168 147.588 237.716C147.588 241.785 149.637 245.376 152.76 247.511L150.116 258.621C149.722 260.277 150.977 261.866 152.678 261.866H167.078C168.779 261.866 170.034 260.277 169.64 258.621L166.864 246.957Z" fill="#2780D2"/>
<path d="M115.888 108.903C115.888 122.085 105.202 132.771 92.0195 132.771C87.4669 132.771 83.212 131.497 79.5922 129.285L72.4881 131.805C71.301 132.226 70.1139 131.177 70.3853 129.947L72.1195 122.087C69.612 118.309 68.1513 113.777 68.1513 108.903C68.1513 95.7212 78.8375 85.035 92.0195 85.035C105.202 85.035 115.888 95.7212 115.888 108.903Z" fill="white"/>
<path fill-rule="evenodd" clip-rule="evenodd" d="M92.0199 85.5699C104.907 85.5699 115.353 96.0166 115.353 108.903C115.353 121.79 104.907 132.237 92.0199 132.237C87.5685 132.237 83.4097 130.991 79.8714 128.829L79.654 128.696L72.3098 131.301C71.5183 131.581 70.727 130.882 70.9079 130.062L72.691 121.98L72.5654 121.791C70.1143 118.099 68.6865 113.669 68.6865 108.903C68.6865 96.0166 79.1332 85.5699 92.0199 85.5699ZM116.423 108.903C116.423 95.4259 105.497 84.5004 92.0199 84.5004C78.5426 84.5004 67.617 95.4259 67.617 108.903C67.617 113.804 69.0619 118.368 71.5491 122.192L69.8635 129.832C69.5017 131.472 71.0844 132.87 72.6673 132.309L79.5328 129.874C83.1863 132.054 87.4577 133.306 92.0199 133.306C105.497 133.306 116.423 122.381 116.423 108.903Z" fill="#032068"/>
<path d="M91.906 108.269C98.5753 108.269 104.075 113.35 104.854 119.905C104.959 120.785 104.23 121.507 103.344 121.507H80.4676C79.5816 121.507 78.8533 120.785 78.9578 119.905C79.7367 113.35 85.2368 108.269 91.906 108.269Z" fill="#2780D2"/>
<path d="M85.7581 100.52C85.7581 103.961 88.5471 106.75 91.9875 106.75C95.4278 106.75 98.2168 103.961 98.2168 100.52C98.2168 97.0801 95.4278 94.2911 91.9875 94.2911C88.5471 94.2911 85.7581 97.0801 85.7581 100.52Z" fill="#2780D2"/>
<rect x="216.517" y="153.987" width="100.265" height="115.431" rx="1.91602" fill="white" stroke="#032068" stroke-width="1.27734"/>
<rect x="233.368" y="182.634" width="67.4047" height="15.1661" rx="1.91602" stroke="#E7E8FF" stroke-width="1.27734"/>
<rect x="233.368" y="213.808" width="67.4047" height="15.1661" rx="1.91602" stroke="#E7E8FF" stroke-width="1.27734"/>
<rect x="249.378" y="240.77" width="35.3875" height="13.4809" rx="1.91602" fill="#032068"/>
<rect x="254.432" y="168.31" width="25.2768" height="3.37024" rx="1.68512" fill="#032068"/>
<ellipse cx="241.374" cy="221.813" rx="2.1064" ry="2.1064" fill="#2780D2"/>
<ellipse cx="251.484" cy="221.813" rx="2.1064" ry="2.1064" fill="#2780D2"/>
<ellipse cx="261.592" cy="221.813" rx="2.1064" ry="2.1064" fill="#2780D2"/>
<ellipse cx="271.703" cy="221.813" rx="2.1064" ry="2.1064" fill="#2780D2"/>
<ellipse cx="281.814" cy="221.813" rx="2.1064" ry="2.1064" fill="#2780D2"/>
<circle cx="241.369" cy="190.638" r="2.1064" fill="#2780D2"/>
<circle cx="251.48" cy="190.638" r="2.1064" fill="#2780D2"/>
<ellipse cx="261.592" cy="190.638" rx="2.1064" ry="2.1064" fill="#2780D2"/>
<ellipse cx="271.702" cy="190.638" rx="2.1064" ry="2.1064" fill="#2780D2"/>
<ellipse cx="281.813" cy="190.638" rx="2.1064" ry="2.1064" fill="#2780D2"/>
<ellipse cx="291.924" cy="190.638" rx="2.1064" ry="2.1064" fill="#2780D2"/>
<circle cx="291.925" cy="221.813" r="2.1064" fill="#2780D2"/>
<path d="M56.1466 178.6L54.3987 189.081C54.9816 191.41 57.8091 196.068 64.4557 196.068C71.1023 196.068 73.347 191.992 73.6385 189.954L71.4521 181.657C77.574 180.347 77.1367 167.246 74.9503 161.132C72.7657 153.708 61.3965 151.524 54.3987 160.258C49.1497 167.682 53.0857 176.125 56.1466 178.6Z" fill="#EFCB96"/>
<path d="M57.4623 176.416L55.6456 182.222C55.4922 182.712 54.8376 182.807 54.5379 182.389C40.7868 163.231 46.613 155.868 51.3408 154.581C53.0899 151.087 58.3373 148.03 67.0828 146.72C75.8283 145.41 79.7638 151.524 78.8893 158.075C78.1896 163.315 68.6861 163.461 64.0219 162.878C64.0219 164.625 61.3982 173.796 60.5236 172.922C59.6491 172.049 57.4623 166.809 55.7132 169.866C54.3139 172.311 56.2962 175.252 57.4623 176.416Z" fill="#032068"/>
<path d="M64.457 181.657C68.3051 182.355 70.7247 181.948 71.4535 181.657L72.328 184.714C68.1302 185.063 65.3316 182.821 64.457 181.657Z" fill="#032068"/>
<path d="M64.4569 193.448C71.1035 193.448 73.6401 189.954 74.5147 188.207C79.3251 188.207 99.0018 192.574 106.435 207.422C113.869 222.27 116.056 255.46 116.93 260.701C117.63 264.893 126.259 287.776 130.486 298.694H12.4198C6.4728 298.694 11.692 266.087 15.045 249.783C13.4417 243.087 11.4593 226.113 16.3568 211.789C21.2543 197.466 43.468 190.1 53.9626 188.207C54.3999 189.954 57.8103 193.448 64.4569 193.448Z" fill="#2780D2"/>
<path d="M50.0265 255.023L46.5283 237.555L54.3992 253.713C67.9548 252.403 79.6155 251.384 83.2595 251.53C80.1111 251.53 54.8365 257.352 42.5928 260.264L50.0265 255.023Z" fill="#032068"/>
<path fill-rule="evenodd" clip-rule="evenodd" d="M93.9729 200.819C93.9768 200.473 94.2611 200.195 94.6078 200.199L100.12 200.261C100.467 200.265 100.745 200.548 100.741 200.895L100.712 203.503C100.708 203.849 100.986 204.133 101.333 204.137L109.744 204.231C110.09 204.235 110.368 204.518 110.365 204.865L110.314 209.404C110.31 209.75 110.026 210.028 109.679 210.024L101.268 209.931C100.921 209.927 100.637 210.204 100.633 210.551L100.604 213.159C100.6 213.505 100.878 213.789 101.225 213.793L105.77 213.843C106.117 213.847 106.395 214.131 106.391 214.478L106.341 219.017C106.337 219.363 106.053 219.641 105.706 219.637L101.16 219.586C100.813 219.582 100.529 219.86 100.525 220.206L99.6556 298.13C99.6518 298.476 99.3675 298.754 99.0207 298.75L93.5086 298.688C93.1618 298.684 92.8839 298.401 92.8877 298.054L93.9729 200.819Z" fill="#032068"/>
<path d="M15.0452 249.783C16.7943 264.194 26.4144 284.108 36.9091 288.65C50.8547 293.975 78.6506 278.167 87.0962 271.501C87.5889 271.09 88.0598 270.692 88.5077 270.308C88.1282 270.66 87.6544 271.061 87.0962 271.501C76.3658 280.46 55.3238 295.464 37.3463 291.707C22.9162 288.213 14.7537 267.397 13.7334 256.333L15.0452 249.783Z" fill="#032068"/>
<path d="M50.4641 289.523C41.7185 281.488 30.4951 280.643 25.9766 281.226C27.2884 283.118 31.2239 287.427 36.4712 289.523C41.7185 291.619 47.9862 290.396 50.4641 289.523Z" fill="#032068"/>
<path d="M88.2839 250.61C88.2839 251.934 86.1005 253.92 85.0088 254.747L87.0557 265.504C87.6016 265.228 90.0852 264.097 92.3778 263.435C95.2435 262.608 100.975 262.608 103.431 260.125C105.888 257.643 105.478 247.714 103.431 245.645C101.794 243.99 96.1988 246.886 93.606 248.541V241.922C89.5121 243.577 88.2839 248.955 88.2839 250.61Z" fill="#EFCB96"/>
<path d="M104.249 221.834C105.298 233.013 107.601 277.732 108.622 298.694H111.683L104.249 221.834Z" fill="#032068"/>
</svg>
