<svg width="327" height="328" viewBox="0 0 327 328" fill="none" xmlns="http://www.w3.org/2000/svg">
<path d="M100.604 281.231H167.679H238.753C257.813 281.231 275.22 270.382 283.652 253.245L304.756 210.359C311.447 196.762 301.578 180.848 286.454 180.848C272.001 180.848 262.128 166.2 267.52 152.756L278.425 125.563C287.642 102.579 268.457 78.2553 244.024 81.9474C235.759 83.1964 227.334 81.148 220.558 76.2417L188.547 53.0635C169.791 39.4832 143.286 49.205 137.7 71.7132C134.903 82.982 126.366 91.9249 115.259 95.2195L94.2088 101.463C74.5705 107.288 64.9605 129.496 74.135 147.853C81.5885 162.766 76.7592 180.91 62.8856 190.118L57.7294 193.54C35.9937 207.966 33.6884 239.08 53.0596 256.567L65.3543 267.665C75.0285 276.399 87.5857 281.231 100.604 281.231Z" fill="#FFF1EA"/>
<path d="M268.977 250.094C261.526 251.791 265.74 272.076 268.891 282.381C269.001 282.74 269.331 282.977 269.706 282.977H276.921C277.349 282.977 277.712 282.663 277.768 282.239C279.881 266.388 278.328 247.963 268.977 250.094Z" fill="#032068"/>
<path d="M302.56 209.138C281.859 207.781 273.426 256.053 271.71 281.222C271.676 281.716 272.07 282.118 272.566 282.118H289.6C289.914 282.118 290.199 281.955 290.349 281.678C303.24 257.778 323.381 210.503 302.56 209.138Z" fill="white"/>
<path fill-rule="evenodd" clip-rule="evenodd" d="M272.568 281.259H289.599C296.03 269.335 304.25 251.614 308.268 236.734C310.283 229.272 311.209 222.637 310.402 217.83C310.001 215.439 309.183 213.569 307.924 212.263C306.679 210.971 304.93 210.154 302.504 209.995C297.719 209.681 293.555 212.214 289.922 216.821C286.285 221.434 283.274 228.017 280.832 235.499C275.954 250.443 273.425 268.715 272.568 281.259ZM288.574 215.758C292.398 210.908 297.052 207.917 302.617 208.281C305.396 208.464 307.572 209.423 309.161 211.071C310.735 212.705 311.659 214.939 312.096 217.546C312.966 222.733 311.955 229.666 309.926 237.181C305.857 252.25 297.564 270.11 291.105 282.085C290.799 282.652 290.217 282.976 289.6 282.976H272.566C271.599 282.976 270.785 282.179 270.854 281.163C271.714 268.54 274.259 250.103 279.2 234.966C281.668 227.404 284.755 220.601 288.574 215.758Z" fill="#032068"/>
<path d="M312.936 241.412C300.836 239.704 290.458 267.167 286.498 281.912C286.353 282.454 286.765 282.976 287.326 282.976H296.569C296.829 282.976 297.069 282.865 297.232 282.663C307.738 269.568 325.235 243.149 312.936 241.412Z" fill="#032068"/>
<path fill-rule="evenodd" clip-rule="evenodd" d="M298.19 228.782L302.092 216.262L300.453 215.751L292.478 241.336L287.852 233.184L286.359 234.032L291.778 243.582L283.93 268.762L279.665 262.325L278.233 263.274L283.271 270.876L279.847 281.862L281.486 282.373L288.472 259.96L297.123 255.403L296.323 253.884L289.196 257.638L297.442 231.182L304.702 227.056L303.853 225.563L298.19 228.782Z" fill="#032068"/>
<path d="M142.898 72.3135C142.898 69.1499 145.463 66.5853 148.627 66.5853H280.554C283.717 66.5853 286.282 69.1499 286.282 72.3135V245.453C286.282 248.616 283.717 251.181 280.554 251.181H148.627C145.463 251.181 142.898 248.616 142.898 245.453V72.3135Z" fill="white"/>
<path fill-rule="evenodd" clip-rule="evenodd" d="M142.04 72.3135C142.04 68.6757 144.989 65.7267 148.627 65.7267H280.554C284.192 65.7267 287.141 68.6757 287.141 72.3135V245.453C287.141 249.09 284.192 252.039 280.554 252.039H148.627C144.989 252.039 142.04 249.09 142.04 245.453V72.3135ZM148.627 67.4439C145.937 67.4439 143.757 69.6241 143.757 72.3135V245.453C143.757 248.142 145.937 250.322 148.627 250.322H280.554C283.243 250.322 285.424 248.142 285.424 245.453V72.3135C285.424 69.6241 283.243 67.4439 280.554 67.4439H148.627Z" fill="#032068"/>
<path d="M142.898 72.3135C142.898 69.1499 145.463 66.5853 148.627 66.5853H280.554C283.717 66.5853 286.282 69.1499 286.282 72.3135V86.3328H142.898V72.3135Z" fill="#032068"/>
<path d="M161.021 76.5994C161.021 78.9698 159.099 80.8913 156.729 80.8913C154.359 80.8913 152.437 78.9698 152.437 76.5994C152.437 74.229 154.359 72.3075 156.729 72.3075C159.099 72.3075 161.021 74.229 161.021 76.5994Z" fill="white"/>
<path d="M175.327 76.5994C175.327 78.9698 173.406 80.8913 171.036 80.8913C168.665 80.8913 166.744 78.9698 166.744 76.5994C166.744 74.229 168.665 72.3075 171.036 72.3075C173.406 72.3075 175.327 74.229 175.327 76.5994Z" fill="white"/>
<path d="M189.633 76.5994C189.633 78.9698 187.712 80.8913 185.341 80.8913C182.971 80.8913 181.049 78.9698 181.049 76.5994C181.049 74.229 182.971 72.3075 185.341 72.3075C187.712 72.3075 189.633 74.229 189.633 76.5994Z" fill="white"/>
<path d="M195.272 227.999C195.272 231.318 192.581 234.009 189.262 234.009C185.943 234.009 183.252 231.318 183.252 227.999C183.252 224.68 185.943 221.989 189.262 221.989C192.581 221.989 195.272 224.68 195.272 227.999Z" fill="#FFF1EA"/>
<path d="M247.646 227.999C247.646 231.318 244.955 234.009 241.636 234.009C238.316 234.009 235.625 231.318 235.625 227.999C235.625 224.68 238.316 221.989 241.636 221.989C244.955 221.989 247.646 224.68 247.646 227.999Z" fill="#FFF1EA"/>
<path d="M142.898 85.4741H163.504V123.252C163.504 128.942 158.892 133.555 153.201 133.555C147.511 133.555 142.898 128.942 142.898 123.252V85.4741Z" fill="#E67F47"/>
<path d="M163.504 85.4741H184.11V123.252C184.11 128.942 179.498 133.555 173.807 133.555C168.117 133.555 163.504 128.942 163.504 123.252V85.4741Z" fill="#032068"/>
<path d="M184.111 85.4741H204.717V123.252C204.717 128.942 200.104 133.555 194.414 133.555C188.724 133.555 184.111 128.942 184.111 123.252V85.4741Z" fill="#E67F47"/>
<path d="M204.717 85.4741H224.464V123.681C224.464 129.134 220.044 133.555 214.591 133.555C209.137 133.555 204.717 129.134 204.717 123.681V85.4741Z" fill="#032068"/>
<path d="M224.464 85.4741H245.07V123.252C245.07 128.942 240.457 133.555 234.767 133.555C229.077 133.555 224.464 128.942 224.464 123.252V85.4741Z" fill="#E67F47"/>
<path d="M245.07 85.4741H265.676V123.252C265.676 128.942 261.064 133.555 255.373 133.555C249.683 133.555 245.07 128.942 245.07 123.252V85.4741Z" fill="#032068"/>
<path d="M265.676 85.4741H286.282V123.252C286.282 128.942 281.669 133.555 275.979 133.555C270.289 133.555 265.676 128.942 265.676 123.252V85.4741Z" fill="#E67F47"/>
<path d="M185.195 217.022L175.754 174.093C175.636 173.557 176.044 173.05 176.593 173.05H255.987C256.547 173.05 256.957 173.577 256.819 174.119L245.926 217.048C245.829 217.429 245.487 217.696 245.094 217.696H186.033C185.63 217.696 185.281 217.415 185.195 217.022Z" fill="#FFF1EA"/>
<path d="M173.526 163.422L176.236 175.809C176.322 176.203 176.671 176.484 177.075 176.484H182.175C182.726 176.484 183.135 175.971 183.011 175.434L178.683 156.545C178.593 156.155 178.246 155.878 177.846 155.878H163.075C162.601 155.878 162.217 156.262 162.217 156.737V161.888C162.217 162.362 162.601 162.747 163.075 162.747H172.687C173.091 162.747 173.44 163.028 173.526 163.422Z" fill="#FFF1EA"/>
<path d="M13.2619 145.258L17.791 177.791C17.8529 178.235 18.2773 178.535 18.717 178.445L36.1769 174.873C36.5753 174.792 36.8436 174.417 36.7926 174.014L32.6748 141.478C32.6181 141.03 32.1934 140.725 31.7509 140.813L13.8796 144.388C13.4759 144.469 13.2051 144.85 13.2619 145.258Z" fill="white"/>
<path fill-rule="evenodd" clip-rule="evenodd" d="M31.5987 140.051C32.4838 139.874 33.3332 140.485 33.4466 141.38L37.5643 173.916C37.6664 174.723 37.1298 175.472 36.3331 175.635L18.8731 179.207C17.9937 179.387 17.145 178.787 17.0212 177.898L12.4921 145.365C12.3785 144.55 12.9201 143.787 13.7274 143.625L31.5987 140.051ZM31.9037 141.576L14.0324 145.151L18.5615 177.683L36.0214 174.111L31.9037 141.576Z" fill="#032068"/>
<path d="M11.4358 163.513C9.27922 169.121 9.27922 176.023 11.4358 179.906C12.9348 182.605 14.5423 186.367 15.4097 188.534L31.7075 184.22L29.551 176.455L17.9055 179.043L17.0429 173.866C22.6499 172.141 26.1004 171.278 26.1004 163.513C26.1004 156.816 22.2177 156.173 19.1994 156.611C14.5471 157.286 12.7629 160.062 11.4358 163.513Z" fill="#EFCB96"/>
<path d="M96.8363 154.022L94.2484 163.513C92.9545 168.258 96.8363 173.866 107.619 173.866C116.245 173.866 117.539 165.814 117.108 161.787L114.951 151.003C117.108 148.846 118.833 147.552 118.833 137.198C118.833 124.257 111.932 119.511 103.737 119.511C95.5424 119.511 88.6414 126.406 88.6411 138.924C88.6409 149.709 94.3922 153.16 96.8363 154.022Z" fill="#EFCB96"/>
<path d="M104.6 169.121C112.536 169.121 116.533 163.944 117.539 161.356C125.159 161.356 142.383 163.685 150.319 173.003C160.239 184.651 172.316 242.457 174.041 252.379C175.421 260.316 173.466 274.667 172.316 280.85C136.373 281.138 63.5384 281.54 59.7429 280.85C55.9473 280.16 55.2859 270.209 55.4297 265.32C49.5352 269.203 35.8484 274.638 28.2573 265.32C18.7684 253.673 11.8674 196.73 12.73 192.416C13.5927 188.102 30.8452 181.2 33.8644 182.494C36.2797 183.529 42.6344 195.292 45.5099 201.044C60.347 167.913 83.8968 160.781 93.817 161.356C94.1045 163.944 96.6636 169.121 104.6 169.121Z" fill="#E67F47"/>
<path d="M75.7012 144.963C69.1453 151.866 69.5191 163.944 70.5255 169.121C81.5929 162.479 90.1249 161.307 93.7974 161.46C93.7974 162.238 94.3227 163.757 94.575 163.793L96.8357 154.023C92.2422 151.738 89.0721 148.415 88.6407 138.493C88.7431 131.129 92.235 125.12 94.2478 123.394C101.149 122.963 104.599 131.59 106.756 135.042C108.481 137.802 109.775 137.342 110.206 136.767C112.363 131.59 116.245 131.159 117.107 136.767C117.798 141.253 114.52 143.525 112.794 144.101L117.125 162.238C117.26 162.232 117.514 161.577 117.514 161.46C126.043 161.225 135.715 164.113 139.536 165.67C140.83 151.866 130.047 147.12 126.596 138.493C123.146 129.865 127.89 125.551 124.44 119.943C121.882 115.786 117.107 115.198 114.088 114.335C111.069 113.472 109.344 110.021 105.893 108.296C99.8549 106.139 94.104 111.459 92.5226 115.198C91.5162 115.054 88.6407 115.457 85.1902 118.217C75.27 125.12 83.8962 136.336 75.7012 144.963Z" fill="#032068"/>
<path d="M63.1936 210.534L55.43 265.751C53.0146 267.132 49.5354 268.052 48.0977 268.34C51.8932 261.783 59.7431 227.07 63.1936 210.534Z" fill="#032068"/>
<path d="M54.567 265.752C41.11 257.47 28.8319 257.412 24.375 258.419C25.2376 262.013 28.9469 269.548 36.8831 270.929C44.8193 272.309 51.9791 268.053 54.567 265.752Z" fill="#032068"/>
<path d="M50.6855 214.417L45.5098 200.612L48.529 195.436L50.6855 214.417Z" fill="#032068"/>
<path d="M142.555 257.986C143.245 266.614 142.268 276.824 141.693 280.85H146.868V269.634C146.868 264.112 141.118 228.221 138.242 210.965C139.392 223.044 141.865 249.359 142.555 257.986Z" fill="#032068"/>
<path d="M173.179 276.968C169.038 267.304 170.591 250.509 172.316 244.182C176.106 260.377 174.477 269.606 173.184 276.934L173.179 276.968Z" fill="#032068"/>
<path d="M105.894 153.591C100.718 154.971 97.6986 154.454 96.8359 154.022L95.542 158.767C101.063 159.458 104.743 155.604 105.894 153.591Z" fill="#032068"/>
<path d="M48.7727 69.8553C48.5161 68.888 49.0922 67.8959 50.0595 67.6393L88.7949 57.3645C89.7622 57.1079 90.7543 57.684 91.0109 58.6513L98.9407 88.5462C99.1973 89.5134 98.6211 90.5056 97.6539 90.7622L58.9185 101.037C57.9512 101.294 56.9591 100.717 56.7025 99.7501L48.7727 69.8553Z" fill="white"/>
<path fill-rule="evenodd" clip-rule="evenodd" d="M48.1888 70.0101C47.8467 68.7204 48.6148 67.3976 49.9045 67.0555L88.6399 56.7807C89.9296 56.4386 91.2525 57.2068 91.5946 58.4965L99.5244 88.3913C99.8665 89.681 99.0983 91.0038 97.8086 91.3459L59.0732 101.621C57.7835 101.963 56.4607 101.195 56.1186 99.905L48.1888 70.0101ZM50.2143 68.2231C49.5694 68.3942 49.1853 69.0556 49.3564 69.7004L57.2862 99.5953C57.4572 100.24 58.1186 100.624 58.7635 100.453L97.4989 90.1783C98.1437 90.0073 98.5278 89.3459 98.3568 88.701L90.427 58.8062C90.2559 58.1613 89.5945 57.7772 88.9497 57.9483L50.2143 68.2231Z" fill="#032068"/>
<path d="M44.2629 64.7432C44.0063 63.776 44.5825 62.7838 45.5497 62.5273L90.1789 50.6891C91.1461 50.4325 92.1383 51.0086 92.3948 51.9759L94.5924 60.2605C94.849 61.2278 94.2728 62.2199 93.3056 62.4765L48.6764 74.3147C47.7092 74.5712 46.717 73.9951 46.4605 73.0278L44.2629 64.7432Z" fill="#032068"/>
<path fill-rule="evenodd" clip-rule="evenodd" d="M43.679 64.8981C43.3369 63.6084 44.1051 62.2855 45.3948 61.9434L90.0239 50.1053C91.3136 49.7632 92.6364 50.5313 92.9785 51.821L95.1761 60.1057C95.5182 61.3953 94.75 62.7182 93.4603 63.0603L48.8312 74.8985C47.5415 75.2406 46.2186 74.4724 45.8765 73.1827L43.679 64.8981ZM45.7045 63.111C45.0596 63.2821 44.6756 63.9435 44.8466 64.5884L47.0441 72.873C47.2152 73.5178 47.8766 73.9019 48.5215 73.7309L93.1506 61.8927C93.7954 61.7216 94.1795 61.0602 94.0085 60.4154L91.8109 52.1308C91.6399 51.4859 90.9785 51.1018 90.3336 51.2729L45.7045 63.111Z" fill="#032068"/>
<path d="M62.4604 58.0413L73.2656 55.1751L76.3923 66.9625L65.5871 69.8287L62.4604 58.0413Z" fill="#E67F47"/>
<path fill-rule="evenodd" clip-rule="evenodd" d="M61.7222 57.6123L73.6949 54.4365L77.1313 67.3915L65.1586 70.5673L61.7222 57.6123ZM63.1995 58.4702L66.0165 69.09L75.654 66.5336L72.837 55.9138L63.1995 58.4702Z" fill="#032068"/>
<path fill-rule="evenodd" clip-rule="evenodd" d="M63.2793 51.5466C65.2301 52.4578 66.653 54.1741 67.4877 55.6378C67.9454 56.4402 67.3385 57.3491 66.4879 57.3673C63.4024 57.4331 59.4322 57.3171 56.9048 56.731C56.2697 56.5837 55.6952 56.4001 55.2386 56.166C54.7981 55.9401 54.3698 55.6175 54.1842 55.1404C53.9795 54.614 54.1362 54.0896 54.4668 53.6391C54.7876 53.2019 55.3146 52.7659 56.0259 52.3178C58.8138 50.5615 61.2856 50.6153 63.2793 51.5466ZM62.7681 52.6411C61.1647 51.8921 59.1272 51.7917 56.6698 53.3399C56.0084 53.7565 55.6297 54.0962 55.4407 54.3537C55.2658 54.592 55.3023 54.6831 55.3096 54.7012C55.3097 54.7016 55.3099 54.702 55.31 54.7024C55.335 54.7666 55.4419 54.9127 55.7898 55.0911C56.1217 55.2613 56.589 55.4177 57.1778 55.5542C59.5288 56.0995 63.329 56.2235 66.3951 56.161C65.6291 54.8446 64.3836 53.3957 62.7681 52.6411Z" fill="#032068"/>
<path fill-rule="evenodd" clip-rule="evenodd" d="M68.3546 50.2002C67.1119 51.9586 66.7267 54.1544 66.7272 55.8394C66.7275 56.7632 67.7051 57.2517 68.4528 56.8459C71.1653 55.3739 74.5561 53.3053 76.4606 51.5435C76.9392 51.1008 77.3472 50.6566 77.6277 50.227C77.8984 49.8124 78.1104 49.32 78.0351 48.8136C77.9521 48.255 77.5561 47.8772 77.0456 47.6498C76.5503 47.4291 75.8765 47.3116 75.0366 47.2749C71.7447 47.1313 69.6246 48.4032 68.3546 50.2002ZM69.3411 50.8974C70.3624 49.4522 72.0823 48.3552 74.984 48.4818C75.765 48.5158 76.2622 48.6232 76.554 48.7532C76.824 48.8735 76.8374 48.9706 76.8401 48.99C76.8402 48.9904 76.8402 48.9909 76.8403 48.9912C76.8504 49.0594 76.83 49.2392 76.6162 49.5666C76.4123 49.8789 76.084 50.2464 75.6403 50.6568C73.8686 52.2956 70.6294 54.2869 67.9355 55.7522C67.9484 54.2292 68.312 52.3535 69.3411 50.8974Z" fill="#032068"/>
<path d="M37.2577 103.885L37.1578 109.254C37.1517 109.581 36.964 109.877 36.6711 110.022L32.9459 111.863C32.1445 112.259 32.384 113.46 33.2761 113.519L37.4986 113.795C37.8069 113.816 38.0816 113.997 38.2212 114.273L40.3081 118.391C40.7004 119.166 41.8594 118.957 41.9566 118.094L42.4943 113.32C42.5259 113.04 42.6908 112.792 42.9371 112.655L46.3003 110.778C47.0579 110.356 46.8036 109.207 45.9384 109.143L42.1818 108.867C41.8801 108.845 41.6114 108.669 41.4712 108.401L38.9064 103.497C38.4869 102.694 37.2746 102.98 37.2577 103.885Z" fill="#E67F47"/>
<path d="M309.953 164.395L307.545 167.541C307.399 167.732 307.16 167.824 306.926 167.779L303.95 167.211C303.31 167.088 302.924 167.909 303.418 168.342L305.757 170.391C305.927 170.54 306.008 170.771 305.969 170.997L305.382 174.375C305.272 175.01 306.038 175.403 306.472 174.934L308.875 172.338C309.016 172.185 309.22 172.112 309.424 172.14L312.204 172.526C312.83 172.613 313.185 171.817 312.709 171.393L310.641 169.553C310.475 169.405 310.396 169.18 310.432 168.958L311.083 164.9C311.19 164.236 310.359 163.865 309.953 164.395Z" fill="#E67F47"/>
</svg>
