<svg width="327" height="327" viewBox="0 0 327 327" fill="none" xmlns="http://www.w3.org/2000/svg">
<path d="M83.8314 286.125H184.948H218.18C233.338 286.125 247.79 279.73 257.964 268.519L266.351 259.279C278.534 245.854 279.603 225.742 268.91 211.108C258.48 196.834 259.213 177.288 270.683 163.831L272.809 161.337C289.754 141.457 284.835 111.166 262.465 97.6418L194.05 56.2794C168.973 41.1185 136.499 47.0203 118.391 70.0296L114.164 75.4019C106.831 84.7195 95.9185 90.5431 84.08 91.4564L76.9123 92.0093C54.9062 93.7069 39.5351 114.493 44.4025 135.972C47.9594 151.668 40.6766 167.817 26.5445 175.573L25.4019 176.2C6.3435 186.658 -0.0110078 210.934 11.4878 229.355L27.4152 254.87C39.5495 274.309 60.8782 286.125 83.8314 286.125Z" fill="#FFF1EA"/>
<path d="M253.109 241.447C241.914 240.237 227.642 268.175 222.095 281.917H230.416C242.519 269.183 264.304 242.657 253.109 241.447Z" fill="#032068"/>
<path d="M251.219 200.221C229.131 202.037 215.792 254.937 211.884 281.16H226.256C243.78 253.424 273.307 198.406 251.219 200.221Z" fill="white"/>
<path fill-rule="evenodd" clip-rule="evenodd" d="M256.592 202.604C255.549 201.468 253.884 200.839 251.287 201.052C246.101 201.478 241.315 204.915 236.959 210.461C232.612 215.995 228.787 223.514 225.509 231.843C219.113 248.095 214.865 267.263 212.853 280.326H225.796C234.52 266.481 246.097 246.067 252.818 229.299C256.22 220.81 258.329 213.37 258.267 208.212C258.236 205.636 257.664 203.771 256.592 202.604ZM254.365 229.919C247.527 246.982 235.734 267.72 226.961 281.605L226.715 281.994H210.917L211.059 281.037C213.019 267.886 217.343 248.039 223.958 231.232C227.264 222.832 231.159 215.146 235.648 209.431C240.127 203.729 245.292 199.872 251.15 199.39C254.075 199.15 256.319 199.843 257.82 201.476C259.292 203.079 259.901 205.431 259.934 208.192C260.001 213.706 257.775 221.413 254.365 229.919Z" fill="#032068"/>
<path fill-rule="evenodd" clip-rule="evenodd" d="M245.754 220.541C247.762 215.854 249.626 211.494 251.229 207.734L249.695 207.08C247.873 211.354 245.714 216.405 243.387 221.829C241.639 225.906 239.797 230.193 237.931 234.52L233.815 225.957L232.312 226.679L237.057 236.549C234.615 242.209 232.154 247.892 229.834 253.217C228.591 256.072 227.388 258.824 226.25 261.414L223.645 253.295L222.058 253.805L225.238 263.715C223.101 268.564 221.242 272.729 219.843 275.778C219.129 277.334 218.536 278.595 218.089 279.506C217.865 279.963 217.68 280.325 217.536 280.591C217.464 280.724 217.405 280.828 217.359 280.904C217.321 280.966 217.3 280.996 217.295 281.004C217.293 281.006 217.293 281.006 217.294 281.005L218.575 282.072C218.708 281.913 218.858 281.652 219.002 281.385C219.161 281.091 219.357 280.706 219.585 280.241C220.042 279.31 220.642 278.034 221.358 276.474C222.791 273.352 224.7 269.072 226.891 264.098C228.243 261.028 229.703 257.693 231.225 254.2L240.554 250.544L239.946 248.992L232.165 252.041C234.295 247.144 236.526 241.989 238.738 236.86C240.804 232.071 242.854 227.303 244.79 222.788L253.067 219.138L252.395 217.613L245.754 220.541Z" fill="#032068"/>
<path d="M93.3818 51.8004C93.3818 46.276 97.8603 41.7975 103.385 41.7975H217.185C222.71 41.7975 227.188 46.276 227.188 51.8004V274.319C227.188 279.843 222.71 284.322 217.185 284.322H103.385C97.8603 284.322 93.3818 279.843 93.3818 274.319V51.8004Z" fill="white"/>
<path fill-rule="evenodd" clip-rule="evenodd" d="M92.5479 51.8004C92.5479 45.8155 97.3995 40.9639 103.384 40.9639H217.185C223.17 40.9639 228.021 45.8155 228.021 51.8004V274.319C228.021 280.304 223.17 285.155 217.185 285.155H103.384C97.3996 285.155 92.5479 280.304 92.5479 274.319V51.8004ZM103.384 42.631C98.3203 42.631 94.215 46.7363 94.215 51.8004V274.319C94.215 279.383 98.3203 283.488 103.384 283.488H217.185C222.249 283.488 226.354 279.383 226.354 274.319V51.8004C226.354 46.7363 222.249 42.631 217.185 42.631H103.384Z" fill="#032068"/>
<path d="M133.678 49.9283L129.341 41.797H191.227L186.128 50.2943C184.622 52.8051 181.909 54.3414 178.981 54.3414H141.033C137.955 54.3414 135.127 52.6446 133.678 49.9283Z" fill="#032068"/>
<path d="M225.547 46.8148H94.1694C98.5181 42.4661 102.672 41.6577 104.205 41.7971H215.511C220.864 41.7971 224.432 45.1422 225.547 46.8148Z" fill="#032068"/>
<path d="M225.483 279.566H95.0859C99.6052 283.985 102.217 284.806 103.81 284.665H216.759C222.321 284.665 224.325 281.266 225.483 279.566Z" fill="#032068"/>
<path d="M108.386 93.7898C108.386 92.4087 109.506 91.2891 110.887 91.2891H199.246H203.491C205.965 91.2891 206.937 94.4981 204.878 95.8705L200.36 98.8825C199.664 99.3463 199.246 100.127 199.246 100.963V107.961V122.132C199.246 123.513 198.127 124.632 196.746 124.632H110.887C109.506 124.632 108.386 123.513 108.386 122.132V93.7898Z" fill="#FFF1EA"/>
<path d="M118.389 102.542C118.389 101.852 118.949 101.292 119.64 101.292H187.993C188.684 101.292 189.243 101.852 189.243 102.542C189.243 103.233 188.684 103.793 187.993 103.793H119.64C118.949 103.793 118.389 103.233 118.389 102.542Z" fill="white"/>
<path d="M118.389 113.379C118.389 112.688 118.949 112.129 119.64 112.129H152.149C152.84 112.129 153.4 112.688 153.4 113.379C153.4 114.07 152.84 114.629 152.149 114.629H119.64C118.949 114.629 118.389 114.07 118.389 113.379Z" fill="white"/>
<path d="M120.056 137.97H210.083C211.464 137.97 212.584 139.089 212.584 140.47V168.812C212.584 170.193 211.464 171.313 210.083 171.313H122.557C121.176 171.313 120.056 170.193 120.056 168.812V147.592C120.056 146.785 119.666 146.027 119.009 145.557L114.736 142.505C112.756 141.091 113.757 137.97 116.19 137.97H120.056Z" fill="#FFF1EA"/>
<path d="M131.727 150.056C131.727 149.366 132.286 148.806 132.977 148.806H201.33C202.021 148.806 202.581 149.366 202.581 150.056C202.581 150.747 202.021 151.307 201.33 151.307H132.977C132.286 151.307 131.727 150.747 131.727 150.056Z" fill="white"/>
<path d="M108.386 187.151C108.386 185.77 109.506 184.65 110.887 184.65H199.246H203.491C205.965 184.65 206.937 187.859 204.878 189.232L200.36 192.243C199.664 192.707 199.246 193.488 199.246 194.324V201.322V215.492C199.246 216.874 198.127 217.993 196.746 217.993H110.887C109.506 217.993 108.386 216.874 108.386 215.492V187.151Z" fill="#FFF1EA"/>
<path d="M120.056 196.737C120.056 196.046 120.616 195.487 121.307 195.487H189.66C190.351 195.487 190.91 196.046 190.91 196.737C190.91 197.428 190.351 197.987 189.66 197.987H121.307C120.616 197.987 120.056 197.428 120.056 196.737Z" fill="white"/>
<path d="M131.727 160.893C131.727 160.202 132.286 159.643 132.977 159.643H165.487C166.177 159.643 166.737 160.202 166.737 160.893C166.737 161.584 166.177 162.143 165.487 162.143H132.977C132.286 162.143 131.727 161.584 131.727 160.893Z" fill="white"/>
<path d="M120.056 231.331H210.083C211.464 231.331 212.583 232.45 212.583 233.831V262.173C212.583 263.554 211.464 264.674 210.083 264.674H122.557C121.176 264.674 120.056 263.554 120.056 262.173V240.898C120.056 240.121 119.695 239.389 119.08 238.916L115.047 235.813C113.155 234.358 114.184 231.331 116.572 231.331H120.056Z" fill="#FFF1EA"/>
<path d="M130.893 242.584C130.893 241.893 131.452 241.333 132.143 241.333H200.497C201.187 241.333 201.747 241.893 201.747 242.584C201.747 243.274 201.187 243.834 200.497 243.834H132.143C131.452 243.834 130.893 243.274 130.893 242.584Z" fill="white"/>
<path d="M120.056 207.573C120.056 206.883 120.616 206.323 121.307 206.323H172.155C172.845 206.323 173.405 206.883 173.405 207.573C173.405 208.264 172.845 208.824 172.155 208.824H121.307C120.616 208.824 120.056 208.264 120.056 207.573Z" fill="white"/>
<path d="M108.722 74.9651C108.722 73.584 109.842 72.4644 111.223 72.4644H153.949C155.33 72.4644 156.449 73.584 156.449 74.9651V75.0772C156.449 76.4584 155.33 77.578 153.949 77.578H111.223C109.842 77.578 108.722 76.4584 108.722 75.0772V74.9651Z" fill="#E67F47"/>
<path fill-rule="evenodd" clip-rule="evenodd" d="M217.795 53.7144V60.5325H216.127V53.7144H217.795Z" fill="#032068"/>
<path fill-rule="evenodd" clip-rule="evenodd" d="M213.533 54.5667V60.5325H211.866V54.5667H213.533Z" fill="#032068"/>
<path fill-rule="evenodd" clip-rule="evenodd" d="M209.272 56.2711V60.5325H207.604V56.2711H209.272Z" fill="#032068"/>
<path fill-rule="evenodd" clip-rule="evenodd" d="M205.01 57.9757V60.5325H203.343V57.9757H205.01Z" fill="#032068"/>
<path d="M130.893 253.42C130.893 252.73 131.452 252.17 132.143 252.17H139.645C140.336 252.17 140.896 252.73 140.896 253.42C140.896 254.111 140.336 254.671 139.645 254.671H132.143C131.452 254.671 130.893 254.111 130.893 253.42Z" fill="white"/>
<path d="M71.2854 140.865C59.8356 148.972 64.6479 163.385 66.8051 168.969L65.86 180.366C66.8388 183.953 70.3895 191.129 76.7617 191.129C83.1338 191.129 86.0544 185.004 86.7181 181.941L85.7225 173.293C93.1898 170.591 93.6876 159.781 93.1897 151.134C92.5986 140.865 81.3708 133.724 71.2854 140.865Z" fill="#EFCB96"/>
<path d="M76.1545 187.045C83.6315 187.045 87.1404 182.449 87.9602 180.151C102.225 180.151 114.031 190 119.442 196.895C124.853 203.79 145.021 240.235 140.102 255.009C136.167 266.829 126.657 268.635 121.41 267.814L122.264 283.202C122.334 284.474 121.323 285.544 120.05 285.544H48.1162C40.5736 286.036 24.1112 286.233 18.6019 283.082C11.7153 279.142 5.32052 258.949 18.6019 219.058C29.227 187.144 54.1829 179.822 65.3327 180.151C65.8246 182.449 68.6776 187.045 76.1545 187.045Z" fill="#E67F47"/>
<path d="M40.333 285.573C28.4741 271.102 15.9357 265.939 11.1489 265.166C11.1489 269.804 13.4651 278.616 17.6343 282.79C20.9696 286.129 34.1564 286.037 40.333 285.573Z" fill="#032068"/>
<path d="M132.054 266.094C139.837 263.125 141.165 252.489 140.856 247.542C133.815 250.881 124.334 262.229 120.473 267.485C121.091 268.258 124.272 269.062 132.054 266.094Z" fill="#032068"/>
<path d="M75.1712 232.355C71.7279 233.832 46.1489 245.816 34.3433 251.562C35.819 249.1 41.7218 245.16 43.1975 243.682C44.6732 242.205 50.0842 224.967 50.0842 227.43C50.0842 229.892 47.1327 241.22 48.6084 241.22C50.0842 241.22 70.7441 232.355 75.1712 232.355Z" fill="#032068"/>
<path d="M85.5012 246.637C64.6445 274.611 47.6246 284.559 41.7218 286.036H52.0518C69.7603 272.247 81.7299 254.024 85.5012 246.637Z" fill="#032068"/>
<path d="M111.08 241.712C111.867 251.168 118.623 263.054 121.902 267.814V272.247C114.425 263.973 111.572 248.443 111.08 241.712Z" fill="#032068"/>
<path d="M120.426 228.415C123.181 229.991 128.133 233.668 130.264 235.31L122.394 225.953C122 227.529 120.918 228.251 120.426 228.415Z" fill="#032068"/>
<path d="M91.3402 210.318L87.5684 247.138C87.5183 247.627 87.9503 248.028 88.434 247.941L106.13 244.761C106.442 244.705 106.684 244.456 106.731 244.142L111.928 209.135C111.998 208.667 111.616 208.255 111.145 208.288L92.0226 209.656C91.6647 209.682 91.3768 209.961 91.3402 210.318Z" fill="white"/>
<path fill-rule="evenodd" clip-rule="evenodd" d="M111.092 207.551C112.035 207.483 112.798 208.308 112.659 209.244L107.461 244.25C107.368 244.879 106.885 245.377 106.261 245.489L88.5642 248.669C87.597 248.843 86.7329 248.041 86.8331 247.062L90.6049 210.243C90.6782 209.528 91.2538 208.969 91.9697 208.918L111.092 207.551ZM111.197 209.026L92.0749 210.394L88.3031 247.213L105.999 244.033L111.197 209.026Z" fill="#032068"/>
<path d="M116.983 228.415L111.08 237.28C103.209 237.772 101.734 233.34 103.209 226.445C104.39 220.929 108.784 220.863 110.588 221.52L111.572 217.58C116.983 222.013 116.983 226.281 116.983 228.415Z" fill="#EFCB96"/>
<path d="M67.1645 166.144L66.1726 175.944C65.8419 175.218 65.0815 173.113 64.6848 170.499C64.1889 167.233 56.2534 154.711 58.7332 145.456C60.7171 138.052 66.1727 138.378 68.6525 139.467C70.1404 136.745 79.0677 127.49 91.9628 128.579C104.858 129.667 106.346 148.178 95.9305 150.9C87.5983 153.078 78.2411 151.807 74.604 150.9C74.2734 151.626 73.3145 154.058 72.1242 157.978C70.6363 162.877 70.6363 163.966 70.1404 160.7C69.6444 157.433 67.6605 151.444 65.1807 157.433C63.1968 162.224 65.6766 165.237 67.1645 166.144Z" fill="#032068"/>
<path d="M74.3691 173.096C77.7817 175.108 83.6395 174.083 85.8514 173.244L86.2208 176.573C81.2915 177.78 76.107 174.773 74.3691 173.096Z" fill="#032068"/>
<path d="M82.5492 227.43C81.3686 230.582 79.1059 232.683 78.1221 233.34L84.5168 243.19C86.4844 241.22 88.9439 241.22 94.3549 238.757C99.7658 236.295 101.242 227.43 99.7658 222.505C98.5852 218.565 91.7314 221.52 88.9439 223.49L89.4358 218.073C85.9925 219.55 84.0249 223.49 82.5492 227.43Z" fill="#EFCB96"/>
<path d="M251.341 84.3063C251.341 83.6173 251.895 83.0587 252.578 83.0587H287.624C288.307 83.0587 288.861 83.6173 288.861 84.3063V108.488C288.861 109.177 288.307 109.735 287.624 109.735H252.578C251.895 109.735 251.341 109.177 251.341 108.488V84.3063Z" fill="white"/>
<path fill-rule="evenodd" clip-rule="evenodd" d="M250.929 84.3063C250.929 83.3876 251.667 82.6428 252.578 82.6428H287.624C288.535 82.6428 289.273 83.3876 289.273 84.3063V108.488C289.273 109.406 288.535 110.151 287.624 110.151H252.578C251.667 110.151 250.929 109.406 250.929 108.488V84.3063ZM252.578 83.4745C252.123 83.4745 251.753 83.8469 251.753 84.3063V108.488C251.753 108.947 252.123 109.319 252.578 109.319H287.624C288.08 109.319 288.449 108.947 288.449 108.488V84.3063C288.449 83.8469 288.08 83.4745 287.624 83.4745H252.578Z" fill="#032068"/>
<path d="M252.532 109.735H287.67C288.062 109.735 288.233 109.236 287.925 108.992L270.866 95.4529C270.417 95.0967 269.785 95.0967 269.336 95.4529L252.277 108.992C251.969 109.236 252.14 109.735 252.532 109.735Z" fill="white"/>
<path fill-rule="evenodd" clip-rule="evenodd" d="M270.611 95.7797C270.312 95.5423 269.89 95.5423 269.591 95.7797L252.532 109.319H287.67L270.611 95.7797ZM269.081 95.1261C269.68 94.6512 270.523 94.6512 271.121 95.1261L288.18 108.666C288.796 109.154 288.453 110.151 287.67 110.151H252.532C251.749 110.151 251.407 109.154 252.022 108.666L269.081 95.1261Z" fill="#032068"/>
<path d="M287.742 83.0587H252.46C252.077 83.0587 251.901 83.5402 252.193 83.7911L269.298 98.4987C269.761 98.8962 270.441 98.8962 270.903 98.4987L288.009 83.7911C288.301 83.5402 288.125 83.0587 287.742 83.0587Z" fill="#E67F47"/>
<path fill-rule="evenodd" clip-rule="evenodd" d="M251.926 84.1075C251.342 83.6058 251.694 82.6428 252.461 82.6428H287.742C288.509 82.6428 288.861 83.6058 288.277 84.1075L271.171 98.8152C270.555 99.3452 269.648 99.3452 269.031 98.8152L251.926 84.1075ZM287.742 83.4745L252.461 83.4745L269.566 98.1822C269.875 98.4472 270.328 98.4472 270.636 98.1822L287.742 83.4745Z" fill="#032068"/>
<path d="M248.732 149.706C248.732 149.205 249.142 148.798 249.647 148.798H275.55C276.055 148.798 276.465 149.205 276.465 149.706V167.292C276.465 167.793 276.055 168.199 275.55 168.199H249.647C249.142 168.199 248.732 167.793 248.732 167.292V149.706Z" fill="white"/>
<path fill-rule="evenodd" clip-rule="evenodd" d="M248.428 149.706C248.428 149.037 248.973 148.496 249.647 148.496H275.55C276.224 148.496 276.769 149.037 276.769 149.706V167.292C276.769 167.96 276.224 168.502 275.55 168.502H249.647C248.973 168.502 248.428 167.96 248.428 167.292V149.706ZM249.647 149.101C249.31 149.101 249.037 149.372 249.037 149.706V167.292C249.037 167.626 249.31 167.897 249.647 167.897H275.55C275.887 167.897 276.16 167.626 276.16 167.292V149.706C276.16 149.372 275.887 149.101 275.55 149.101H249.647Z" fill="#032068"/>
<path d="M249.612 168.199H275.585C275.874 168.199 276 167.837 275.773 167.659L263.164 157.812C262.832 157.553 262.365 157.553 262.033 157.812L249.424 167.659C249.197 167.837 249.323 168.199 249.612 168.199Z" fill="white"/>
<path fill-rule="evenodd" clip-rule="evenodd" d="M262.976 158.05C262.754 157.877 262.443 157.877 262.222 158.05L249.613 167.897H275.585L262.976 158.05ZM261.845 157.575C262.287 157.229 262.91 157.229 263.352 157.575L275.962 167.422C276.416 167.777 276.163 168.502 275.585 168.502H249.613C249.034 168.502 248.781 167.777 249.236 167.422L261.845 157.575Z" fill="#032068"/>
<path d="M275.637 148.798H249.56C249.276 148.798 249.146 149.149 249.362 149.331L262.006 160.027C262.347 160.317 262.85 160.317 263.192 160.027L275.835 149.331C276.051 149.149 275.921 148.798 275.637 148.798Z" fill="#E67F47"/>
<path fill-rule="evenodd" clip-rule="evenodd" d="M249.165 149.561C248.733 149.196 248.993 148.496 249.56 148.496H275.638C276.204 148.496 276.464 149.196 276.033 149.561L263.39 160.258C262.934 160.643 262.264 160.643 261.808 160.258L249.165 149.561ZM275.638 149.101L249.56 149.101L262.203 159.797C262.431 159.99 262.766 159.99 262.994 159.797L275.638 149.101Z" fill="#032068"/>
<path d="M56.6117 71.601L55.3712 79.4452C55.2958 79.9225 54.9604 80.3178 54.5019 80.4702L48.6698 82.4079C47.4151 82.8248 47.5212 84.6336 48.816 84.901L54.945 86.1668C55.3924 86.2593 55.7579 86.581 55.9063 87.0132L58.1238 93.4719C58.5407 94.6861 60.2811 94.6161 60.5992 93.3724L62.3599 86.4889C62.4632 86.0847 62.7553 85.7553 63.1441 85.6042L68.453 83.541C69.6489 83.0762 69.5106 81.3412 68.2561 81.0719L62.8095 79.9023C62.3721 79.8083 62.0144 79.495 61.8636 79.0738L59.106 71.3674C58.655 70.107 56.8208 70.2788 56.6117 71.601Z" fill="#E67F47"/>
<path d="M42.2905 112.655L43.6424 114.475C43.9306 114.863 43.9783 115.38 43.7661 115.814L43.2082 116.956C42.6258 118.147 44.0018 119.339 45.098 118.591L46.2192 117.827C46.5968 117.57 47.0822 117.531 47.496 117.725L49.2492 118.547C50.4074 119.089 51.5662 117.801 50.9039 116.706L49.8005 114.883C49.5845 114.527 49.5539 114.088 49.7183 113.704L50.2171 112.541C50.7248 111.358 49.3789 110.241 48.3091 110.958L47.3372 111.609C46.9656 111.858 46.4917 111.897 46.0841 111.713L43.8616 110.707C42.646 110.156 41.4947 111.584 42.2905 112.655Z" fill="#E67F47"/>
<path fill-rule="evenodd" clip-rule="evenodd" d="M189.035 111.998C188.133 112.784 187.277 113.604 186.466 114.455L185.161 113.211C186.01 112.321 186.907 111.462 187.851 110.639L189.035 111.998ZM184.134 117.138C183.392 118.074 182.7 119.038 182.055 120.024L180.546 119.037C181.22 118.007 181.945 116.999 182.72 116.019L184.134 117.138ZM194.798 107.851C193.764 108.458 192.771 109.106 191.82 109.791L190.767 108.328C191.763 107.611 192.803 106.932 193.885 106.296L194.798 107.851ZM180.246 123.085C179.686 124.141 179.177 125.214 178.72 126.299L177.059 125.6C177.536 124.465 178.068 123.343 178.655 122.239L180.246 123.085ZM201.23 104.823C200.097 105.237 199.002 105.694 197.944 106.192L197.177 104.561C198.283 104.04 199.428 103.562 200.611 103.13L201.23 104.823ZM177.491 129.636C177.129 130.776 176.824 131.923 176.574 133.071L174.813 132.688C175.074 131.485 175.394 130.284 175.773 129.091L177.491 129.636ZM208.095 102.959C206.904 103.179 205.746 103.443 204.621 103.747L204.15 102.007C205.323 101.69 206.529 101.415 207.768 101.187L208.095 102.959ZM175.987 136.572C175.917 137.162 175.862 137.751 175.823 138.338C175.777 139.02 175.748 139.673 175.734 140.3L173.932 140.259C173.946 139.605 173.977 138.924 174.024 138.217C174.066 137.6 174.123 136.981 174.197 136.361L175.987 136.572ZM213.412 102.295C212.81 102.336 212.216 102.388 211.628 102.45L211.44 100.657C212.049 100.593 212.666 100.539 213.29 100.497L213.412 102.295ZM175.864 144.172C176.008 145.625 176.256 146.866 176.576 147.92L174.851 148.444C174.492 147.262 174.224 145.903 174.071 144.35L175.864 144.172ZM176.89 151.451C176.064 151.916 175.223 152.528 174.394 153.319L173.15 152.014C174.083 151.124 175.044 150.421 176.006 149.88L176.89 151.451ZM172.331 155.726C172.032 156.146 171.739 156.596 171.452 157.076C171.189 157.515 170.951 157.96 170.735 158.41L169.11 157.63C169.349 157.131 169.614 156.638 169.904 156.152C170.215 155.632 170.534 155.143 170.861 154.683L172.331 155.726ZM169.672 161.245C169.397 162.232 169.209 163.232 169.096 164.234L167.305 164.031C167.428 162.942 167.633 161.847 167.936 160.761L169.672 161.245ZM182.733 150.3C181.877 150.142 180.857 150.134 179.748 150.363L179.383 148.598C180.712 148.323 181.968 148.326 183.06 148.527L182.733 150.3ZM178.17 151.197C179.013 152.304 179.973 152.918 180.894 153.209L180.351 154.928C179.06 154.52 177.795 153.679 176.736 152.289L178.17 151.197ZM168.967 167.295C168.993 168.336 169.087 169.363 169.232 170.365L167.448 170.624C167.294 169.558 167.193 168.459 167.165 167.341L168.967 167.295ZM185.166 152.125C185.253 151.948 185.259 151.751 185.06 151.475L186.524 150.422C187.039 151.138 187.217 152.046 186.78 152.926C186.41 153.673 185.711 154.261 184.908 154.649L184.125 153.026C184.683 152.756 185.023 152.413 185.166 152.125ZM169.84 173.399C170.107 174.449 170.419 175.444 170.752 176.363L169.058 176.978C168.705 176.006 168.376 174.954 168.093 173.844L169.84 173.399ZM171.955 179.211C172.201 179.715 172.444 180.167 172.673 180.56L171.116 181.469C170.863 181.034 170.6 180.543 170.336 180.004L171.955 179.211Z" fill="#032068"/>
<path fill-rule="evenodd" clip-rule="evenodd" d="M223.819 94.3385L229.608 100.379L224.862 105.716L223.515 104.518L226.489 101.173C225.422 101.116 224.374 101.09 223.345 101.094L223.338 99.2912C224.253 99.2877 225.182 99.3072 226.125 99.3505L222.517 95.5857L223.819 94.3385Z" fill="#032068"/>
</svg>
