<svg width="15" height="17" viewBox="0 0 15 17" fill="none" xmlns="http://www.w3.org/2000/svg">
<path d="M1.44257 8.28908C1.46632 8.35041 1.50061 8.40568 1.54373 8.45168L5.91873 13.1183C6.00998 13.2157 6.13 13.265 6.25 13.265C6.37 13.265 6.49002 13.2163 6.58127 13.1183C6.76439 12.923 6.76439 12.6063 6.58127 12.411L3.00629 8.59767H13.125C13.3838 8.59767 13.5938 8.37367 13.5938 8.09767C13.5938 7.82167 13.3838 7.59767 13.125 7.59767H3.0069L6.58188 3.78436C6.765 3.58903 6.765 3.27234 6.58188 3.077C6.39875 2.88167 6.10186 2.88167 5.91873 3.077L1.54373 7.74367C1.50061 7.78967 1.46632 7.84493 1.44257 7.90627C1.39507 8.02893 1.39507 8.16641 1.44257 8.28908Z" fill="#344057"/>
</svg>
