<svg width="24" height="21" viewBox="0 0 24 21" fill="none" xmlns="http://www.w3.org/2000/svg">
<path d="M22.5419 1.41048C22.5407 1.41048 22.5408 1.41051 22.5396 1.40934C20.5539 0.467841 18.3526 0.137654 15.9959 0.425821C14.2996 0.634654 12.8645 1.6041 12 2.9621C11.1343 1.60526 9.70044 0.634654 8.00411 0.425821C5.64394 0.137654 3.44491 0.467841 1.46041 1.40934C1.46041 1.40934 1.46044 1.40934 1.45927 1.40934C0.952936 1.64967 0.625 2.17108 0.625 2.73808V17.9106C0.625 18.3702 0.834907 18.7915 1.20007 19.068C1.56407 19.3445 2.04961 19.4319 2.49178 19.3082C5.88445 18.3446 8.75318 18.753 11.5135 20.5928C11.5252 20.601 11.5392 20.6033 11.5508 20.6103C11.5637 20.6173 11.573 20.629 11.587 20.636C11.5998 20.643 11.6149 20.6395 11.6277 20.6465C11.7456 20.7025 11.8705 20.7398 11.9989 20.7398C12.1272 20.7398 12.2519 20.7025 12.3697 20.6465C12.3825 20.6407 12.3979 20.643 12.4107 20.636C12.4236 20.629 12.4341 20.6185 12.4458 20.6103C12.4574 20.6033 12.4714 20.601 12.4831 20.5928C15.2434 18.7518 18.111 18.3434 21.5048 19.3071C21.9481 19.4331 22.4311 19.3445 22.7962 19.068C23.1614 18.7927 23.3716 18.3702 23.3716 17.9106V2.73808C23.3751 2.17341 23.0482 1.65198 22.5419 1.41048ZM5.85506 17.0567C4.73389 17.0567 3.5755 17.2141 2.375 17.5256V2.9131C4.03167 2.16294 5.8086 1.91686 7.79077 2.16186C9.69244 2.3952 11.125 4.01679 11.125 5.93245V18.3353C9.45083 17.4824 7.70306 17.0567 5.85506 17.0567ZM21.625 17.5268C18.4423 16.6996 15.5653 16.9645 12.875 18.3377V5.93487C12.875 4.01804 14.3087 2.39748 16.2092 2.16414C16.7016 2.10348 17.1812 2.07314 17.649 2.07314C19.0665 2.07314 20.379 2.35203 21.6239 2.91553V17.5268H21.625ZM15.5 6.15647H19C19.483 6.15647 19.875 6.54847 19.875 7.03147C19.875 7.51447 19.483 7.90647 19 7.90647H15.5C15.017 7.90647 14.625 7.51447 14.625 7.03147C14.625 6.54847 15.017 6.15647 15.5 6.15647ZM18.7083 10.5315C18.7083 11.0145 18.3163 11.4065 17.8333 11.4065H15.5C15.017 11.4065 14.625 11.0145 14.625 10.5315C14.625 10.0485 15.017 9.65647 15.5 9.65647H17.8333C18.3163 9.65647 18.7083 10.0485 18.7083 10.5315Z" fill="#344057"/>
</svg>
