<svg width="14" height="13" viewBox="0 0 14 13" fill="none" xmlns="http://www.w3.org/2000/svg">
<path d="M10.0038 1.99569H9.34275V1.59907C9.34275 1.38014 9.16506 1.20245 8.94613 1.20245C8.7272 1.20245 8.54951 1.38014 8.54951 1.59907V1.99569H5.11216V1.59907C5.11216 1.38014 4.93447 1.20245 4.71554 1.20245C4.49661 1.20245 4.31892 1.38014 4.31892 1.59907V1.99569H3.65789C2.3792 1.99569 1.6748 2.70008 1.6748 3.97878V9.53143C1.6748 10.8101 2.3792 11.5145 3.65789 11.5145H10.0038C11.2825 11.5145 11.9869 10.8101 11.9869 9.53143V3.97878C11.9869 2.70008 11.2825 1.99569 10.0038 1.99569ZM11.1936 9.53143C11.1936 10.3654 10.8377 10.7213 10.0038 10.7213H3.65789C2.82394 10.7213 2.46804 10.3654 2.46804 9.53143V3.97878C2.46804 3.14482 2.82394 2.78892 3.65789 2.78892H4.31892V3.18554C4.31892 3.40448 4.49661 3.58216 4.71554 3.58216C4.93447 3.58216 5.11216 3.40448 5.11216 3.18554V2.78892H8.54951V3.18554C8.54951 3.40448 8.7272 3.58216 8.94613 3.58216C9.16506 3.58216 9.34275 3.40448 9.34275 3.18554V2.78892H10.0038C10.8377 2.78892 11.1936 3.14482 11.1936 3.97878V9.53143Z" fill="#2780D2"/>
</svg>
