<svg width="15" height="15" viewBox="0 0 15 15" fill="none" xmlns="http://www.w3.org/2000/svg">
<path d="M7.00912 1.32678C3.55111 1.32678 0.738281 4.1402 0.738281 7.59762C0.738281 11.055 3.55111 13.8685 7.00912 13.8685C10.4671 13.8685 13.2799 11.055 13.2799 7.59762C13.2799 4.1402 10.4671 1.32678 7.00912 1.32678ZM7.00912 12.9935C4.03353 12.9935 1.61328 10.5732 1.61328 7.59762C1.61328 4.62203 4.03353 2.20178 7.00912 2.20178C9.9847 2.20178 12.4049 4.62203 12.4049 7.59762C12.4049 10.5732 9.9847 12.9935 7.00912 12.9935ZM9.06828 6.1568L7.62745 7.59762L9.06828 9.03843C9.2392 9.20935 9.2392 9.48645 9.06828 9.65737C8.98311 9.74254 8.87111 9.78569 8.75912 9.78569C8.64712 9.78569 8.53512 9.74312 8.44995 9.65737L7.00912 8.21652L5.56828 9.65737C5.48311 9.74254 5.37111 9.78569 5.25911 9.78569C5.14711 9.78569 5.03512 9.74312 4.94995 9.65737C4.77903 9.48645 4.77903 9.20935 4.94995 9.03843L6.39078 7.59762L4.94995 6.1568C4.77903 5.98588 4.77903 5.70878 4.94995 5.53786C5.12087 5.36695 5.39795 5.36695 5.56887 5.53786L7.0097 6.97871L8.45054 5.53786C8.62145 5.36695 8.89854 5.36695 9.06946 5.53786C9.23921 5.70878 9.2392 5.98647 9.06828 6.1568Z" fill="#2780D2"/>
</svg>
