<svg width="24" height="25" viewBox="0 0 24 25" fill="none" xmlns="http://www.w3.org/2000/svg">
<path d="M18 21.656H6C3.582 21.656 2.25 20.324 2.25 17.906V14.156H3C3.689 14.156 4.25 13.595 4.25 12.906C4.25 12.217 3.689 11.656 3 11.656H2.25V7.90601C2.25 5.48801 3.582 4.15601 6 4.15601H18C20.418 4.15601 21.75 5.48801 21.75 7.90601V11.656H21C20.311 11.656 19.75 12.217 19.75 12.906C19.75 13.595 20.311 14.156 21 14.156H21.75V17.906C21.75 20.324 20.418 21.656 18 21.656ZM3.75 15.552V17.906C3.75 19.483 4.423 20.156 6 20.156H18C19.577 20.156 20.25 19.483 20.25 17.906V15.552C19.097 15.225 18.25 14.163 18.25 12.906C18.25 11.649 19.097 10.587 20.25 10.26V7.90601C20.25 6.32901 19.577 5.65601 18 5.65601H6C4.423 5.65601 3.75 6.32901 3.75 7.90601V10.26C4.903 10.587 5.75 11.649 5.75 12.906C5.75 14.163 4.903 15.225 3.75 15.552ZM10.03 15.936L15.03 10.936C15.323 10.643 15.323 10.168 15.03 9.875C14.737 9.582 14.262 9.582 13.969 9.875L8.96899 14.875C8.67599 15.168 8.67599 15.643 8.96899 15.936C9.11499 16.082 9.30702 16.156 9.49902 16.156C9.69102 16.156 9.88403 16.083 10.03 15.936ZM10.5 10.406C10.5 9.85401 10.054 9.40601 9.50195 9.40601H9.49194C8.94194 9.40601 8.49902 9.85401 8.49902 10.406C8.49902 10.958 8.95098 11.406 9.50098 11.406C10.054 11.406 10.5 10.958 10.5 10.406ZM15.5 15.406C15.5 14.854 15.054 14.406 14.502 14.406H14.4919C13.9419 14.406 13.499 14.854 13.499 15.406C13.499 15.958 13.951 16.406 14.501 16.406C15.054 16.406 15.5 15.958 15.5 15.406Z" fill="#25314C"/>
</svg>
