<svg width="24" height="25" viewBox="0 0 24 25" fill="none" xmlns="http://www.w3.org/2000/svg">
<path d="M12 1.77686C6.072 1.77686 1.25 6.59986 1.25 12.5269C1.25 18.4539 6.072 23.2769 12 23.2769C17.928 23.2769 22.75 18.4539 22.75 12.5269C22.75 6.59986 17.928 1.77686 12 1.77686ZM21.25 12.5269C21.25 12.5609 21.245 12.5939 21.245 12.6279C20.797 12.7329 20.348 12.9618 20 13.3178C19.848 13.1968 19.5 12.8358 18.937 11.7968C18.315 10.6498 18.562 10.1168 18.936 9.30984C19.063 9.03685 19.188 8.76184 19.28 8.47784C19.427 8.04284 19.403 7.46485 19.298 6.86185C20.516 8.42985 21.25 10.3919 21.25 12.5269ZM2.75 12.5269C2.75 12.0369 2.79899 11.5599 2.87299 11.0909C3.74599 13.5989 5.705 14.5929 6.797 15.1439C6.981 15.2369 7.19897 15.3468 7.31897 15.4218C7.36697 15.6888 7.35902 15.8769 7.34302 16.2039C7.32802 16.5309 7.30899 16.9389 7.33899 17.5739C7.39899 18.8089 8.40302 19.3339 9.13702 19.7169C9.57702 19.9469 9.99397 20.1639 10.207 20.4789C10.314 20.6319 10.413 21.1118 10.378 21.6248C6.04999 20.8558 2.75 17.0739 2.75 12.5269ZM11.868 21.7699C11.931 20.9549 11.781 20.1098 11.444 19.6288C11.025 19.0098 10.392 18.6788 9.83301 18.3878C9.08901 17.9988 8.85399 17.8259 8.83899 17.5029C8.81199 16.9349 8.83002 16.5688 8.84302 16.2758C8.86302 15.8538 8.88 15.4889 8.75 14.9299C8.623 14.3849 8.116 14.1289 7.474 13.8049C6.113 13.1189 3.85503 11.9709 3.93903 8.00586C5.52603 5.18686 8.54198 3.27686 12.001 3.27686C12.394 3.27686 12.779 3.30985 13.16 3.35785C12.999 3.56885 12.769 3.74386 12.533 3.82086C10.466 4.49786 10.444 6.33586 10.429 7.55286C10.417 8.57386 10.351 8.75986 10.202 8.79486C10.077 8.78586 9.72499 8.59584 9.51599 8.48184C8.97899 8.18984 8.42502 7.88786 7.84802 8.02786C7.37202 8.13986 6.79297 8.58187 6.60797 9.20987C6.51597 9.52187 6.45099 10.1399 7.04999 10.7609C7.41199 11.1359 7.425 11.2829 7.453 11.5759C7.474 11.7999 7.50403 12.1058 7.66803 12.4818C8.29903 13.8758 10.192 13.6608 10.912 13.5768C12.03 13.4368 12.232 13.4309 12.793 14.0149C13.021 14.2519 13.154 14.5538 13.294 14.8738C13.561 15.4798 13.925 16.3098 15.052 16.4398C15.932 16.5489 16.496 16.8259 16.665 17.0529C16.706 17.1079 16.716 17.1459 16.705 17.2099C16.652 17.5239 16.258 17.8989 15.801 18.3339C15.043 19.0539 14.039 20.0199 13.676 21.6189C13.132 21.7189 12.573 21.7789 12 21.7789C11.955 21.7769 11.912 21.7709 11.868 21.7699ZM15.439 21.1068C15.789 20.4198 16.315 19.9119 16.834 19.4189C17.459 18.8249 18.048 18.2648 18.185 17.4568C18.264 16.9878 18.155 16.5369 17.869 16.1539C17.241 15.3109 15.951 15.0368 15.232 14.9478C14.996 14.9208 14.933 14.8679 14.669 14.2679C14.5 13.8829 14.289 13.4028 13.876 12.9738C12.777 11.8298 11.871 11.9428 10.735 12.0858C9.36299 12.2418 9.08998 11.9798 9.03998 11.8698C8.97598 11.7238 8.96497 11.6079 8.94897 11.4329C8.90097 10.9259 8.80198 10.4129 8.13098 9.71786C8.07498 9.65986 8.05201 9.61985 8.04901 9.62985C8.06501 9.58685 8.15399 9.50386 8.13599 9.49286C8.25699 9.50386 8.59699 9.68886 8.79999 9.79886C9.33299 10.0889 9.88499 10.3869 10.464 10.2679C11.902 9.97185 11.918 8.58385 11.93 7.56985C11.947 6.19185 12.053 5.55585 13.001 5.24585C13.691 5.01985 14.382 4.43986 14.693 3.67886C15.502 3.92586 16.26 4.28386 16.958 4.72986C17.449 5.48386 18.047 7.44584 17.858 8.00784C17.782 8.24184 17.679 8.46086 17.577 8.67886C17.159 9.57986 16.639 10.7018 17.62 12.5118C18.467 14.0728 19.147 14.7749 19.895 14.8609C19.936 14.8659 19.983 14.8689 20.036 14.8689C20.303 14.8689 20.7 14.7829 21.065 14.3769C20.438 17.4459 18.285 19.9618 15.439 21.1068Z" fill="#25314C"/>
</svg>
