<svg width="28" height="29" viewBox="0 0 28 29" fill="none" xmlns="http://www.w3.org/2000/svg">
<path d="M21 25.625H16.0417V19.5C16.0417 18.3741 15.1258 17.4583 14 17.4583C12.8742 17.4583 11.9583 18.3741 11.9583 19.5V25.625H7C4.179 25.625 2.625 24.071 2.625 21.25V13.8417C2.625 11.3648 3.30866 10.673 4.42399 9.7478L11.564 3.76166C12.9745 2.57749 15.0255 2.57749 16.436 3.76166L23.576 9.7478C24.6913 10.673 25.375 11.366 25.375 13.8417V21.25C25.375 24.071 23.821 25.625 21 25.625ZM17.7917 23.875H21C22.8398 23.875 23.625 23.0898 23.625 21.25V13.8417C23.625 12.0613 23.331 11.8175 22.4595 11.0942L15.3125 5.10222C14.5518 4.46522 13.4482 4.46522 12.6875 5.10222L5.54053 11.0942C4.66903 11.8175 4.375 12.0613 4.375 13.8417V21.25C4.375 23.0898 5.16017 23.875 7 23.875H10.2083V19.5C10.2083 17.4093 11.9093 15.7083 14 15.7083C16.0907 15.7083 17.7917 17.4093 17.7917 19.5V23.875Z" fill="#B2B8C5"/>
</svg>
