<svg width="16" height="17" viewBox="0 0 16 17" fill="none" xmlns="http://www.w3.org/2000/svg">
<path d="M7.99967 1.59775C4.04767 1.59775 0.833008 4.81308 0.833008 8.76441C0.833008 12.7157 4.04767 15.9311 7.99967 15.9311C11.9517 15.9311 15.1663 12.7157 15.1663 8.76441C15.1663 4.81308 11.9517 1.59775 7.99967 1.59775ZM7.99967 14.9311C4.59901 14.9311 1.83301 12.1651 1.83301 8.76441C1.83301 5.36375 4.59901 2.59775 7.99967 2.59775C11.4003 2.59775 14.1663 5.36375 14.1663 8.76441C14.1663 12.1651 11.4003 14.9311 7.99967 14.9311ZM10.833 8.76441C10.833 9.04041 10.609 9.26441 10.333 9.26441H5.66634C5.39034 9.26441 5.16634 9.04041 5.16634 8.76441C5.16634 8.48841 5.39034 8.26441 5.66634 8.26441H10.333C10.609 8.26441 10.833 8.48841 10.833 8.76441Z" fill="#25314C"/>
</svg>
