<svg width="14" height="14" viewBox="0 0 14 14" fill="none" xmlns="http://www.w3.org/2000/svg">
<path d="M9.39843 12.0995C9.2456 12.0995 9.09223 12.063 8.94997 11.9884L6.89394 10.9123C6.85481 10.8916 6.80823 10.8916 6.76909 10.9123L4.71461 11.9874C4.38727 12.1587 3.99811 12.1301 3.69879 11.9123C3.40106 11.6949 3.25404 11.3348 3.31644 10.9715L3.70828 8.697C3.71568 8.65416 3.70138 8.61081 3.67071 8.58067L1.95681 6.91699C1.70245 6.67003 1.61205 6.30672 1.72151 5.9688C1.83098 5.63088 2.11756 5.38921 2.46975 5.33791L4.83997 4.99523C4.88333 4.98888 4.92035 4.96192 4.93938 4.92332L5.96688 2.8514C6.13082 2.52089 6.46188 2.3157 6.831 2.3157C7.20012 2.3157 7.53118 2.52089 7.69512 2.8514L8.72203 4.9228C8.7416 4.96193 8.77867 4.98888 8.82203 4.99523L11.1922 5.33791C11.5444 5.38868 11.831 5.63035 11.9405 5.9688C12.05 6.30672 11.9595 6.67003 11.7051 6.91699L9.99174 8.58012C9.96001 8.61079 9.94632 8.65416 9.95372 8.697L10.3456 10.9725C10.408 11.3353 10.262 11.6954 9.96373 11.9123C9.79556 12.0365 9.59727 12.0995 9.39843 12.0995ZM6.83152 10.1037C6.97906 10.1037 7.12712 10.1386 7.26144 10.2089L9.31754 11.2851C9.39951 11.3284 9.46611 11.2951 9.49784 11.2718C9.52957 11.2491 9.5798 11.1968 9.56446 11.1079L9.17262 8.83185C9.12079 8.53042 9.22125 8.2237 9.44071 8.01111L11.1536 6.3485C11.2049 6.29879 11.1964 6.24272 11.1869 6.21417C11.1774 6.18508 11.1509 6.13433 11.0795 6.12376L8.70938 5.78107C8.40742 5.73771 8.14673 5.5484 8.01188 5.27552L6.98541 3.20464C6.94469 3.12214 6.87169 3.10997 6.83203 3.10997C6.79237 3.10997 6.71944 3.12214 6.67872 3.20464L5.65173 5.27604C5.51741 5.54838 5.25671 5.73771 4.95475 5.78107L2.58453 6.12376C2.51314 6.13433 2.48617 6.18455 2.47718 6.21417C2.46766 6.24325 2.45972 6.29879 2.51049 6.3485L4.22387 8.01166C4.4428 8.22372 4.54327 8.53042 4.49145 8.83185L4.09961 11.1063C4.08427 11.1957 4.13508 11.2481 4.16681 11.2713C4.19959 11.2946 4.26405 11.3274 4.34814 11.2845L6.40262 10.2095C6.53589 10.1391 6.68397 10.1037 6.83152 10.1037Z" fill="#A6AEBE"/>
</svg>
