<svg width="29" height="29" viewBox="0 0 29 29" fill="none" xmlns="http://www.w3.org/2000/svg">
<path d="M21.0625 3.34717H7.9375C4.83417 3.34717 3.125 5.05633 3.125 8.15967V21.2847C3.125 24.388 4.83417 26.0972 7.9375 26.0972H21.0625C24.1658 26.0972 25.875 24.388 25.875 21.2847V8.15967C25.875 5.05633 24.1658 3.34717 21.0625 3.34717ZM20.625 24.3472H8.375V23.9038C8.375 22.932 8.67255 19.7621 12.505 19.7621H16.495C20.3275 19.7621 20.625 22.932 20.625 23.9038V24.3472ZM24.125 21.2847C24.125 22.925 23.5848 23.842 22.375 24.185V23.9038C22.375 21.1855 20.835 18.0121 16.495 18.0121H12.505C8.16505 18.0121 6.625 21.1867 6.625 23.9038V24.185C5.41517 23.842 4.875 22.9238 4.875 21.2847V8.15967C4.875 6.013 5.79083 5.09717 7.9375 5.09717H21.0625C23.2092 5.09717 24.125 6.013 24.125 8.15967V21.2847ZM14.5094 8.01383C12.0979 8.01383 10.1344 9.97617 10.1344 12.3888C10.1344 14.8015 12.0979 16.7638 14.5094 16.7638C16.9209 16.7638 18.8844 14.8015 18.8844 12.3888C18.8844 9.97617 16.9209 8.01383 14.5094 8.01383ZM14.5094 15.0138C13.0627 15.0138 11.8844 13.8367 11.8844 12.3888C11.8844 10.941 13.0627 9.76383 14.5094 9.76383C15.9561 9.76383 17.1344 10.941 17.1344 12.3888C17.1344 13.8367 15.9561 15.0138 14.5094 15.0138Z" fill="#B2B8C5"/>
</svg>
