<svg width="374" height="375" viewBox="0 0 374 375" fill="none" xmlns="http://www.w3.org/2000/svg">
<path d="M272.989 335.641H193.247H80.727C73.2885 335.641 66.1227 332.789 60.6564 327.653C46.6951 314.534 48.3187 291.611 63.9843 280.668L82.9208 267.439C104.462 252.392 110.193 222.549 95.8054 200.35L88.0562 188.393C66.1239 154.551 80.617 108.734 117.825 94.2851L146.134 83.2918C161.727 77.2365 179.341 80.6604 191.646 92.1386L206.325 105.831C216.163 115.008 231.444 114.336 240.468 104.328C250.615 93.074 268.275 93.8501 277.431 105.952L317.178 158.484C327.779 172.494 326.418 192.361 314.01 204.737L305.567 213.159C292.438 226.255 296.301 248.687 313.023 256.455C327.755 263.298 332.916 281.979 323.847 295.638L310.894 315.147C302.385 327.962 288.183 335.641 272.989 335.641Z" fill="#EEEEEE"/>
<path d="M296.045 259.865C295.163 262.085 292.369 265.601 291.082 267.081L292.185 285.956C292.736 285.215 296.597 283.291 307.626 281.515C321.413 279.294 317.553 270.412 314.244 263.195C310.935 255.979 309.28 257.089 305.972 256.534C302.663 255.979 297.148 257.089 296.045 259.865Z" fill="#EFCB96"/>
<path d="M191.335 181.399C200.542 177.895 217.094 190.887 224.219 197.821C241.757 219.171 229.151 268.438 232.987 270.08C236.824 271.723 282.313 261.322 287.245 261.869C292.178 262.417 300.399 283.218 297.11 290.882C293.822 298.546 239.016 331.391 220.93 335.771C202.844 340.15 116.25 336.318 109.674 334.676C103.097 333.033 106.385 320.99 118.991 283.766C139.817 221.36 179.826 185.778 191.335 181.399Z" fill="black"/>
<path d="M211.065 168.808L201.2 182.493L223.122 201.653L230.247 185.778C246.689 183.588 248.333 161.691 247.785 153.48C247.237 145.269 241.208 134.868 223.122 144.174C208.653 151.619 209.055 163.699 211.065 168.808Z" fill="#EFCB96"/>
<path d="M214.353 168.261L204.488 177.567C202.843 175.377 204.488 168.261 204.488 161.144C204.488 154.028 208.324 142.532 223.67 137.058C239.015 131.584 252.717 143.08 249.977 145.269C247.784 147.021 243.948 147.824 242.304 148.006C239.381 148.189 232.768 149.32 229.698 152.386C225.862 156.218 222.574 164.976 221.477 162.787C220.381 160.597 222.026 155.67 216.545 155.67C212.16 155.67 213.257 164.064 214.353 168.261Z" fill="#3A3A3A"/>
<path d="M249.429 148.553C247.237 148.553 239.016 147.459 235.179 146.911C240.843 143.992 253.923 137.715 260.938 135.963C269.707 133.773 272.996 138.152 270.803 141.437C268.611 144.721 252.169 148.553 249.429 148.553Z" fill="#3A3A3A"/>
<path d="M234.084 146.911C226.602 148.987 211.14 155.163 203.015 158.909C202.396 159.194 201.683 158.783 201.639 158.104C200.882 146.301 204.022 131.984 219.834 128.299C234.042 124.125 244.732 134.538 247.918 141.053C248.163 141.555 247.891 142.137 247.363 142.32L234.084 146.911Z" fill="white"/>
<path fill-rule="evenodd" clip-rule="evenodd" d="M238.512 129.828C243.524 132.823 247.123 137.199 248.798 140.624C249.325 141.702 248.714 142.888 247.684 143.244L234.375 147.845L234.346 147.853C226.938 149.909 211.53 156.06 203.425 159.797C202.202 160.361 200.751 159.553 200.662 158.166C200.278 152.174 200.874 145.456 203.641 139.732C206.428 133.97 211.392 129.27 219.584 127.353C226.983 125.188 233.479 126.821 238.512 129.828ZM237.506 131.507C232.852 128.726 226.908 127.24 220.11 129.237L220.083 129.245L220.056 129.251C212.452 131.024 207.949 135.32 205.405 140.583C202.842 145.882 202.245 152.213 202.615 158.017C210.751 154.266 226.228 148.081 233.792 145.977L247.002 141.41C245.475 138.328 242.151 134.282 237.506 131.507Z" fill="#3A3A3A"/>
<path d="M206.132 325.37C196.486 320.114 177.633 282.124 168.864 263.511C179.825 294.714 192.979 318.253 199.007 324.822C205.036 331.391 214.901 336.318 219.286 335.771C222.793 335.333 228.785 333.033 231.891 331.391C227.689 331.756 215.778 330.625 206.132 325.37Z" fill="#3A3A3A"/>
<path d="M229.699 331.939C217.422 318.801 201.2 312.962 194.623 311.684C196.45 315.516 201.967 324.165 209.421 328.107C216.874 332.048 226.045 332.304 229.699 331.939Z" fill="#3A3A3A"/>
<path d="M42.2618 214.791C51.4693 197.712 73.5013 158.772 83.3664 141.437C95.9718 138.153 174.345 179.209 175.989 186.326C177.633 193.442 108.029 325.37 100.904 325.917C93.7796 326.465 12.6665 285.956 12.6665 280.481C12.6665 275.007 30.7525 236.141 42.2618 214.791Z" fill="white"/>
<path fill-rule="evenodd" clip-rule="evenodd" d="M175.521 183.934C176.194 184.631 176.774 185.376 176.943 186.106C177.042 186.536 176.988 187.05 176.901 187.526C176.808 188.038 176.646 188.652 176.43 189.35C175.996 190.747 175.317 192.56 174.433 194.715C172.662 199.03 170.041 204.789 166.836 211.484C160.422 224.878 151.647 242.066 142.599 259.044C133.552 276.022 124.227 292.802 116.714 305.377C112.959 311.662 109.648 316.912 107.045 320.616C105.746 322.464 104.607 323.95 103.667 324.992C103.198 325.511 102.758 325.944 102.354 326.259C101.987 326.546 101.508 326.852 100.979 326.892C100.347 326.941 99.465 326.768 98.4822 326.501C97.4582 326.222 96.192 325.802 94.7292 325.264C91.8011 324.188 88.0266 322.62 83.7151 320.713C75.0888 316.898 64.2655 311.706 53.6702 306.329C43.0761 300.953 32.694 295.383 24.9533 290.809C21.0863 288.524 17.858 286.476 15.5878 284.817C14.4561 283.99 13.5342 283.24 12.8857 282.59C12.5623 282.266 12.2825 281.943 12.0775 281.626C11.8852 281.329 11.6875 280.932 11.6875 280.481C11.6875 279.625 12.0206 278.281 12.5329 276.667C13.0595 275.009 13.82 272.935 14.7616 270.551C16.6457 265.782 19.2738 259.726 22.2572 253.184C28.2243 240.099 35.6328 225.025 41.3998 214.328C50.6136 197.236 72.6517 158.286 82.5153 140.954L82.7195 140.595L83.1193 140.491C84.0677 140.244 85.2437 140.222 86.5598 140.349C87.8892 140.477 89.4274 140.764 91.1314 141.182C94.5398 142.017 98.684 143.395 103.275 145.152C112.462 148.666 123.524 153.727 134.228 159.108C144.933 164.488 155.304 170.199 163.11 175.016C167.01 177.423 170.289 179.618 172.653 181.446C173.833 182.358 174.807 183.195 175.521 183.934ZM83.9992 142.304C84.5963 142.21 85.384 142.2 86.3719 142.295C87.5763 142.411 89.016 142.677 90.6646 143.081C93.9614 143.889 98.0209 145.236 102.575 146.978C111.68 150.46 122.678 155.492 133.348 160.855C144.017 166.217 154.336 171.9 162.081 176.68C165.956 179.071 169.169 181.225 171.455 182.992C172.599 183.877 173.491 184.649 174.112 185.292C174.773 185.976 174.998 186.385 175.035 186.545C175.033 186.535 175.043 186.578 175.036 186.701C175.031 186.817 175.012 186.973 174.975 187.175C174.901 187.58 174.764 188.111 174.56 188.77C174.151 190.088 173.496 191.839 172.621 193.974C170.872 198.238 168.269 203.958 165.069 210.64C158.672 224.001 149.909 241.163 140.871 258.125C131.832 275.088 122.523 291.837 115.033 304.375C111.286 310.646 108.003 315.848 105.442 319.492C104.16 321.317 103.074 322.728 102.213 323.683C101.78 324.162 101.426 324.502 101.148 324.718C100.92 324.896 100.812 324.937 100.801 324.944C100.801 324.944 100.801 324.944 100.801 324.944C100.529 324.956 99.9496 324.873 98.9965 324.614C98.0495 324.356 96.8424 323.957 95.4055 323.429C92.5339 322.373 88.8026 320.824 84.5078 318.924C75.9215 315.127 65.1306 309.952 54.5571 304.586C43.9823 299.219 33.6409 293.67 25.9502 289.126C22.1015 286.851 18.9372 284.841 16.7437 283.239C15.6436 282.435 14.8158 281.754 14.2727 281.21C14.0002 280.937 13.8237 280.722 13.7213 280.564C13.6774 280.496 13.656 280.452 13.6462 280.43C13.6608 279.9 13.8945 278.848 14.3993 277.258C14.9067 275.66 15.6491 273.633 16.5829 271.269C18.4497 266.544 21.0624 260.522 24.0391 253.995C29.9924 240.94 37.3816 225.906 43.1238 215.255C52.2576 198.312 74.0296 159.826 83.9992 142.304Z" fill="#3A3A3A"/>
<path d="M152.97 236.141L158.999 225.74C152.422 221.36 93.0487 189.975 64.1842 174.83L57.6074 185.778L152.97 236.141Z" fill="black"/>
<path d="M114.058 173.187L123.923 155.123L143.105 164.976L134.336 182.494L114.058 173.187Z" fill="black"/>
<path d="M162.287 311.137C146.065 298.875 139.817 275.007 138.721 264.606L129.404 281.029C137.076 321.538 170.508 334.676 179.825 336.866C187.279 338.617 201.93 337.595 208.324 336.866C199.738 333.399 178.51 323.399 162.287 311.137Z" fill="#3A3A3A"/>
<path d="M205.036 201.653C191.883 195.96 175.441 201.836 168.864 205.485L172.7 195.084C174.893 191.252 184.977 185.669 201.2 189.61C217.422 193.552 227.507 205.85 231.343 212.054C232.658 217.309 232.987 225.557 232.987 229.024C229.151 222.273 218.19 207.346 205.036 201.653Z" fill="#3A3A3A"/>
<path d="M219.834 270.628H235.728C232.22 270.628 232.074 266.249 232.439 264.059L219.834 270.628Z" fill="#3A3A3A"/>
<path fill-rule="evenodd" clip-rule="evenodd" d="M311.91 207.444C316.395 207.444 336.016 172.546 336.016 159.233C336.016 145.92 325.223 135.128 311.91 135.128C298.597 135.128 287.805 145.92 287.805 159.233C287.805 172.546 305.744 207.444 311.91 207.444ZM311.911 171.879C318.73 171.879 324.257 166.306 324.257 159.431C324.257 152.556 318.73 146.983 311.911 146.983C305.092 146.983 299.564 152.556 299.564 159.431C299.564 166.306 305.092 171.879 311.911 171.879Z" fill="black"/>
<path fill-rule="evenodd" clip-rule="evenodd" d="M347.521 263.325C350.273 263.325 362.312 242.175 362.312 234.106C362.312 226.038 355.69 219.497 347.521 219.497C339.351 219.497 332.729 226.038 332.729 234.106C332.729 242.175 343.737 263.325 347.521 263.325ZM347.521 241.77C351.705 241.77 355.097 238.392 355.097 234.226C355.097 230.059 351.705 226.682 347.521 226.682C343.337 226.682 339.945 230.059 339.945 234.226C339.945 238.392 343.337 241.77 347.521 241.77Z" fill="black"/>
<path d="M143.471 61.5608L134.38 66.3186C133.826 66.6081 133.153 66.5662 132.634 66.21L126.03 61.6797C124.609 60.705 122.822 62.2069 123.567 63.7498L127.092 71.0528C127.349 71.586 127.305 72.2111 126.975 72.697L122.044 79.9588C121.117 81.324 122.562 83.0672 124.099 82.4382L132.607 78.9572C133.106 78.7528 133.677 78.8007 134.14 79.0859L140.461 82.9794C141.885 83.8565 143.57 82.3781 142.859 80.8754L139.773 74.351C139.526 73.827 139.567 73.2164 139.884 72.7365L145.679 63.9565C146.627 62.5205 145.003 60.7589 143.471 61.5608Z" fill="black"/>
<path d="M89.7166 78.3776L88.9007 81.1745C88.7267 81.7708 88.2304 82.2176 87.6139 82.3328L85.993 82.6356C84.301 82.9517 84.1542 85.2896 85.7915 85.8463L87.4662 86.4158C88.0301 86.6076 88.4532 87.0788 88.579 87.6553L89.112 90.0982C89.4642 91.7119 91.711 91.9163 92.3202 90.3901L93.3353 87.8475C93.5339 87.3498 93.9639 86.9802 94.49 86.8549L96.0862 86.4747C97.7106 86.0878 97.8044 83.8381 96.2191 83.2855L94.7789 82.7834C94.2282 82.5914 93.8138 82.1322 93.6833 81.5693L92.9712 78.4997C92.5817 76.8209 90.1968 76.7314 89.7166 78.3776Z" fill="black"/>
<path fill-rule="evenodd" clip-rule="evenodd" d="M234.906 71.9065C232.855 71.8641 230.821 71.9183 228.809 72.0633L228.587 68.9783C230.693 68.8265 232.822 68.7698 234.97 68.8141L234.906 71.9065ZM222.751 72.7809C220.73 73.1149 218.739 73.5394 216.783 74.0483L216.004 71.0551C218.049 70.5228 220.132 70.0787 222.247 69.7293L222.751 72.7809ZM247.012 73.2869C244.997 72.8655 242.989 72.5433 240.99 72.3154L241.341 69.2423C243.433 69.481 245.536 69.8183 247.645 70.2595L247.012 73.2869ZM210.953 75.8506C209.024 76.5438 207.139 77.3197 205.307 78.1714L204.003 75.3667C205.92 74.4759 207.89 73.6646 209.907 72.9398L210.953 75.8506ZM258.674 76.8605C256.758 76.0798 254.839 75.3974 252.921 74.809L253.828 71.852C255.834 72.4674 257.84 73.1807 259.841 73.9962L258.674 76.8605ZM199.896 80.9927C198.121 82.0233 196.41 83.1272 194.769 84.2969L192.974 81.7784C194.693 80.5527 196.485 79.3967 198.342 78.3181L199.896 80.9927ZM269.543 82.413C267.778 81.3186 266.003 80.3177 264.222 79.4065L265.631 76.653C267.487 77.603 269.336 78.6456 271.173 79.7842L269.543 82.413ZM189.984 88.0667C189.215 88.7363 188.466 89.4213 187.739 90.1206C186.894 90.934 186.103 91.7304 185.363 92.5097L183.12 90.3797C183.894 89.5652 184.718 88.7359 185.595 87.8919C186.359 87.1564 187.146 86.4364 187.954 85.7332L189.984 88.0667ZM277.064 87.7041C276.252 87.0619 275.437 86.4414 274.62 85.8423L276.448 83.3475C277.297 83.9693 278.142 84.613 278.983 85.2787L277.064 87.7041ZM181.061 97.5793C179.567 99.5909 178.45 101.452 177.642 103.16L174.846 101.836C175.754 99.92 176.981 97.8858 178.578 95.7352L181.061 97.5793ZM173.967 108.007C172.381 107.645 170.606 107.453 168.642 107.5L168.567 104.408C170.779 104.355 172.811 104.57 174.657 104.992L173.967 108.007ZM163.244 108.178C162.38 108.367 161.489 108.6 160.57 108.879C159.73 109.134 158.914 109.424 158.121 109.746L156.957 106.881C157.836 106.524 158.74 106.202 159.671 105.92C160.665 105.618 161.635 105.364 162.58 105.157L163.244 108.178ZM153.501 112.121C152.012 113.058 150.62 114.111 149.32 115.253L147.279 112.929C148.693 111.687 150.216 110.534 151.854 109.503L153.501 112.121ZM182.716 113.286C181.811 112.098 180.525 110.91 178.852 109.922L180.425 107.259C182.431 108.444 184.022 109.896 185.177 111.411L182.716 113.286ZM175.886 109.162C175.68 111.541 176.191 113.428 177.025 114.86L174.352 116.416C173.183 114.409 172.546 111.881 172.805 108.895L175.886 109.162ZM145.625 118.993C144.458 120.344 143.391 121.758 142.421 123.197L139.856 121.469C140.889 119.936 142.03 118.424 143.284 116.971L145.625 118.993ZM183.701 118.411C184.016 118.287 184.251 118.043 184.317 117.463L187.39 117.814C187.218 119.318 186.398 120.677 184.827 121.291C183.495 121.812 181.929 121.754 180.462 121.32L181.339 118.354C182.359 118.656 183.188 118.612 183.701 118.411ZM139.692 127.753C138.82 129.394 138.069 131.018 137.431 132.57L134.57 131.396C135.244 129.755 136.038 128.039 136.96 126.302L139.692 127.753ZM135.673 137.574C135.405 138.499 135.192 139.353 135.03 140.117L132.004 139.475C132.183 138.631 132.416 137.704 132.703 136.713L135.673 137.574Z" fill="#3A3A3A"/>
<path fill-rule="evenodd" clip-rule="evenodd" d="M299.461 89.6026L299.844 103.954L287.661 105.257L287.332 102.182L294.967 101.365C293.678 100.06 292.377 98.8179 291.065 97.6359L293.136 95.3384C294.302 96.3898 295.46 97.4864 296.608 98.6292L296.369 89.6853L299.461 89.6026Z" fill="#3A3A3A"/>
</svg>
