<svg width="327" height="328" viewBox="0 0 327 328" fill="none" xmlns="http://www.w3.org/2000/svg">
<path d="M100.604 281.231H167.68H238.754C257.814 281.231 275.22 270.382 283.653 253.245L304.757 210.359C311.447 196.762 301.578 180.848 286.455 180.848C272.002 180.848 262.128 166.2 267.52 152.756L278.425 125.563C287.643 102.579 268.458 78.2553 244.024 81.9474C235.759 83.1964 227.335 81.148 220.559 76.2417L188.547 53.0635C169.792 39.4832 143.286 49.205 137.7 71.7132C134.904 82.982 126.366 91.9249 115.259 95.2195L94.2092 101.463C74.5709 107.288 64.9609 129.496 74.1354 147.853C81.5889 162.766 76.7595 180.91 62.886 190.118L57.7297 193.54C35.9941 207.966 33.6888 239.08 53.06 256.567L65.3547 267.665C75.0289 276.399 87.5861 281.231 100.604 281.231Z" fill="#CBCBCB"/>
<path d="M268.977 250.094C261.527 251.791 265.74 272.076 268.891 282.381C269.001 282.74 269.331 282.977 269.706 282.977H276.921C277.349 282.977 277.712 282.663 277.768 282.239C279.882 266.388 278.328 247.963 268.977 250.094Z" fill="#3A3A3A"/>
<path d="M302.56 209.138C281.859 207.781 273.426 256.053 271.71 281.222C271.677 281.716 272.071 282.118 272.566 282.118H289.6C289.915 282.118 290.199 281.955 290.349 281.678C303.24 257.778 323.381 210.503 302.56 209.138Z" fill="white"/>
<path fill-rule="evenodd" clip-rule="evenodd" d="M272.568 281.259H289.599C296.03 269.335 304.25 251.614 308.268 236.734C310.283 229.272 311.209 222.637 310.402 217.83C310.001 215.439 309.183 213.569 307.924 212.263C306.679 210.971 304.93 210.154 302.504 209.995C297.719 209.681 293.555 212.214 289.922 216.821C286.285 221.434 283.274 228.017 280.832 235.499C275.954 250.443 273.425 268.715 272.568 281.259ZM288.574 215.758C292.398 210.908 297.052 207.917 302.617 208.281C305.396 208.464 307.572 209.423 309.161 211.071C310.735 212.705 311.659 214.939 312.096 217.546C312.966 222.733 311.955 229.666 309.926 237.181C305.857 252.25 297.564 270.11 291.105 282.085C290.799 282.652 290.217 282.976 289.6 282.976H272.566C271.599 282.976 270.785 282.179 270.854 281.163C271.714 268.54 274.259 250.103 279.2 234.966C281.668 227.404 284.755 220.601 288.574 215.758Z" fill="#3A3A3A"/>
<path d="M312.937 241.412C300.837 239.704 290.458 267.167 286.499 281.912C286.353 282.454 286.765 282.976 287.327 282.976H296.569C296.829 282.976 297.07 282.865 297.232 282.663C307.738 269.568 325.235 243.149 312.937 241.412Z" fill="#3A3A3A"/>
<path fill-rule="evenodd" clip-rule="evenodd" d="M298.19 228.782L302.092 216.262L300.453 215.751L292.479 241.336L287.853 233.184L286.359 234.032L291.779 243.582L283.93 268.762L279.665 262.325L278.234 263.274L283.271 270.876L279.847 281.862L281.486 282.373L288.472 259.96L297.123 255.403L296.323 253.884L289.196 257.638L297.442 231.182L304.702 227.056L303.853 225.563L298.19 228.782Z" fill="#3A3A3A"/>
<path d="M142.899 72.3135C142.899 69.1499 145.464 66.5853 148.627 66.5853H280.554C283.718 66.5853 286.283 69.1499 286.283 72.3135V245.453C286.283 248.616 283.718 251.181 280.554 251.181H148.627C145.464 251.181 142.899 248.616 142.899 245.453V72.3135Z" fill="white"/>
<path fill-rule="evenodd" clip-rule="evenodd" d="M142.04 72.3135C142.04 68.6757 144.989 65.7267 148.627 65.7267H280.554C284.192 65.7267 287.141 68.6757 287.141 72.3135V245.453C287.141 249.09 284.192 252.039 280.554 252.039H148.627C144.989 252.039 142.04 249.09 142.04 245.453V72.3135ZM148.627 67.4439C145.938 67.4439 143.758 69.6241 143.758 72.3135V245.453C143.758 248.142 145.938 250.322 148.627 250.322H280.554C283.244 250.322 285.424 248.142 285.424 245.453V72.3135C285.424 69.6241 283.244 67.4439 280.554 67.4439H148.627Z" fill="#3A3A3A"/>
<path d="M142.899 72.3135C142.899 69.1499 145.464 66.5853 148.627 66.5853H280.554C283.718 66.5853 286.283 69.1499 286.283 72.3135V86.3328H142.899V72.3135Z" fill="#3A3A3A"/>
<path d="M161.021 76.5994C161.021 78.9698 159.1 80.8913 156.729 80.8913C154.359 80.8913 152.437 78.9698 152.437 76.5994C152.437 74.229 154.359 72.3075 156.729 72.3075C159.1 72.3075 161.021 74.229 161.021 76.5994Z" fill="white"/>
<path d="M175.328 76.5994C175.328 78.9698 173.406 80.8913 171.036 80.8913C168.666 80.8913 166.744 78.9698 166.744 76.5994C166.744 74.229 168.666 72.3075 171.036 72.3075C173.406 72.3075 175.328 74.229 175.328 76.5994Z" fill="white"/>
<path d="M189.634 76.5994C189.634 78.9698 187.712 80.8913 185.342 80.8913C182.971 80.8913 181.05 78.9698 181.05 76.5994C181.05 74.229 182.971 72.3075 185.342 72.3075C187.712 72.3075 189.634 74.229 189.634 76.5994Z" fill="white"/>
<path d="M195.273 227.999C195.273 231.318 192.582 234.009 189.263 234.009C185.943 234.009 183.253 231.318 183.253 227.999C183.253 224.68 185.943 221.989 189.263 221.989C192.582 221.989 195.273 224.68 195.273 227.999Z" fill="#CBCBCB"/>
<path d="M247.646 227.999C247.646 231.318 244.955 234.009 241.636 234.009C238.317 234.009 235.626 231.318 235.626 227.999C235.626 224.68 238.317 221.989 241.636 221.989C244.955 221.989 247.646 224.68 247.646 227.999Z" fill="#CBCBCB"/>
<path d="M142.899 85.4741H163.505V123.252C163.505 128.942 158.892 133.555 153.202 133.555C147.512 133.555 142.899 128.942 142.899 123.252V85.4741Z" fill="black"/>
<path d="M163.505 85.4741H184.111V123.252C184.111 128.942 179.498 133.555 173.808 133.555C168.118 133.555 163.505 128.942 163.505 123.252V85.4741Z" fill="#3A3A3A"/>
<path d="M184.111 85.4741H204.717V123.252C204.717 128.942 200.104 133.555 194.414 133.555C188.724 133.555 184.111 128.942 184.111 123.252V85.4741Z" fill="black"/>
<path d="M204.717 85.4741H224.465V123.681C224.465 129.134 220.044 133.555 214.591 133.555C209.138 133.555 204.717 129.134 204.717 123.681V85.4741Z" fill="#3A3A3A"/>
<path d="M224.464 85.4741H245.07V123.252C245.07 128.942 240.458 133.555 234.767 133.555C229.077 133.555 224.464 128.942 224.464 123.252V85.4741Z" fill="black"/>
<path d="M245.07 85.4741H265.677V123.252C265.677 128.942 261.064 133.555 255.374 133.555C249.683 133.555 245.07 128.942 245.07 123.252V85.4741Z" fill="#3A3A3A"/>
<path d="M265.677 85.4741H286.283V123.252C286.283 128.942 281.67 133.555 275.98 133.555C270.289 133.555 265.677 128.942 265.677 123.252V85.4741Z" fill="black"/>
<path d="M185.195 217.022L175.755 174.093C175.637 173.557 176.045 173.05 176.593 173.05H255.987C256.547 173.05 256.957 173.577 256.819 174.119L245.926 217.048C245.83 217.429 245.487 217.696 245.094 217.696H186.034C185.63 217.696 185.282 217.415 185.195 217.022Z" fill="#CBCBCB"/>
<path d="M173.526 163.422L176.236 175.809C176.322 176.203 176.671 176.484 177.075 176.484H182.175C182.726 176.484 183.135 175.971 183.012 175.434L178.683 156.545C178.594 156.155 178.246 155.878 177.846 155.878H163.076C162.602 155.878 162.217 156.262 162.217 156.737V161.888C162.217 162.362 162.602 162.747 163.076 162.747H172.688C173.091 162.747 173.44 163.028 173.526 163.422Z" fill="#CBCBCB"/>
<path d="M13.2623 145.258L17.7914 177.791C17.8533 178.235 18.2777 178.535 18.7174 178.445L36.1774 174.873C36.5757 174.792 36.844 174.417 36.793 174.014L32.6752 141.478C32.6186 141.03 32.1939 140.725 31.7513 140.813L13.88 144.388C13.4764 144.469 13.2056 144.85 13.2623 145.258Z" fill="white"/>
<path fill-rule="evenodd" clip-rule="evenodd" d="M31.5988 140.051C32.4839 139.874 33.3333 140.485 33.4467 141.38L37.5644 173.916C37.6665 174.723 37.1299 175.472 36.3332 175.635L18.8733 179.207C17.9938 179.387 17.1451 178.787 17.0213 177.898L12.4922 145.365C12.3787 144.55 12.9202 143.787 13.7275 143.625L31.5988 140.051ZM31.9038 141.576L14.0325 145.151L18.5616 177.683L36.0216 174.111L31.9038 141.576Z" fill="#3A3A3A"/>
<path d="M11.436 163.513C9.27943 169.121 9.27943 176.023 11.436 179.906C12.935 182.605 14.5426 186.367 15.4099 188.534L31.7077 184.22L29.5512 176.455L17.9057 179.043L17.0431 173.866C22.6502 172.141 26.1007 171.278 26.1007 163.513C26.1007 156.816 22.2179 156.173 19.1996 156.611C14.5473 157.286 12.7631 160.062 11.436 163.513Z" fill="#EFCB96"/>
<path d="M96.8363 154.022L94.2484 163.513C92.9545 168.258 96.8363 173.866 107.619 173.866C116.245 173.866 117.539 165.814 117.108 161.787L114.951 151.003C117.108 148.846 118.833 147.552 118.833 137.198C118.833 124.257 111.932 119.511 103.737 119.511C95.5424 119.511 88.6414 126.406 88.6411 138.924C88.6409 149.709 94.3922 153.16 96.8363 154.022Z" fill="#EFCB96"/>
<path d="M104.6 169.121C112.536 169.121 116.533 163.944 117.539 161.356C125.159 161.356 142.383 163.685 150.319 173.003C160.239 184.651 172.316 242.457 174.041 252.379C175.421 260.316 173.466 274.667 172.316 280.85C136.373 281.138 63.5387 281.54 59.7431 280.85C55.9476 280.16 55.2862 270.209 55.43 265.32C49.5355 269.203 35.8487 274.638 28.2576 265.32C18.7687 253.673 11.8677 196.73 12.7303 192.416C13.5929 188.102 30.8455 181.2 33.8647 182.494C36.28 183.529 42.6347 195.292 45.5101 201.044C60.3473 167.913 83.897 160.781 93.8172 161.356C94.1048 163.944 96.6639 169.121 104.6 169.121Z" fill="black"/>
<path d="M75.7016 144.963C69.1456 151.866 69.5194 163.944 70.5258 169.121C81.5933 162.479 90.1252 161.307 93.7978 161.46C93.7978 162.238 94.323 163.757 94.5754 163.793L96.8361 154.023C92.2426 151.738 89.0724 148.415 88.6411 138.493C88.7435 131.129 92.2354 125.12 94.2482 123.394C101.149 122.963 104.6 131.59 106.756 135.042C108.482 137.802 109.775 137.342 110.207 136.767C112.363 131.59 116.245 131.159 117.108 136.767C117.798 141.253 114.52 143.525 112.795 144.101L117.125 162.238C117.26 162.232 117.514 161.577 117.514 161.46C126.043 161.225 135.715 164.113 139.536 165.67C140.83 151.866 130.047 147.12 126.597 138.493C123.146 129.865 127.891 125.551 124.44 119.943C121.883 115.786 117.108 115.198 114.089 114.335C111.069 113.472 109.344 110.021 105.894 108.296C99.8553 106.139 94.1044 111.459 92.5229 115.198C91.5165 115.054 88.6411 115.457 85.1906 118.217C75.2704 125.12 83.8966 136.336 75.7016 144.963Z" fill="#3A3A3A"/>
<path d="M63.1936 210.534L55.43 265.751C53.0146 267.132 49.5354 268.052 48.0977 268.34C51.8932 261.783 59.7431 227.07 63.1936 210.534Z" fill="#3A3A3A"/>
<path d="M54.5674 265.752C41.1104 257.47 28.8323 257.412 24.3754 258.419C25.2381 262.013 28.9474 269.548 36.8835 270.929C44.8197 272.309 51.9795 268.053 54.5674 265.752Z" fill="#3A3A3A"/>
<path d="M50.6855 214.417L45.5098 200.612L48.529 195.436L50.6855 214.417Z" fill="#3A3A3A"/>
<path d="M142.555 257.986C143.245 266.614 142.268 276.824 141.693 280.85H146.868V269.634C146.868 264.112 141.118 228.221 138.242 210.965C139.392 223.044 141.865 249.359 142.555 257.986Z" fill="#3A3A3A"/>
<path d="M173.179 276.968C169.038 267.304 170.591 250.509 172.316 244.182C176.106 260.377 174.478 269.606 173.185 276.934L173.179 276.968Z" fill="#3A3A3A"/>
<path d="M105.894 153.591C100.718 154.971 97.6987 154.454 96.8361 154.022L95.5421 158.767C101.063 159.458 104.743 155.604 105.894 153.591Z" fill="#3A3A3A"/>
<path d="M48.7729 69.8553C48.5163 68.888 49.0924 67.8959 50.0597 67.6393L88.7951 57.3645C89.7624 57.1079 90.7545 57.684 91.0111 58.6513L98.9409 88.5462C99.1975 89.5134 98.6213 90.5056 97.6541 90.7622L58.9186 101.037C57.9514 101.294 56.9592 100.717 56.7027 99.7501L48.7729 69.8553Z" fill="white"/>
<path fill-rule="evenodd" clip-rule="evenodd" d="M48.1891 70.0101C47.847 68.7204 48.6151 67.3976 49.9048 67.0555L88.6403 56.7807C89.93 56.4386 91.2528 57.2068 91.5949 58.4965L99.5247 88.3913C99.8668 89.681 99.0986 91.0038 97.8089 91.3459L59.0735 101.621C57.7838 101.963 56.461 101.195 56.1189 99.905L48.1891 70.0101ZM50.2146 68.2231C49.5697 68.3942 49.1856 69.0556 49.3567 69.7004L57.2865 99.5953C57.4575 100.24 58.1189 100.624 58.7638 100.453L97.4992 90.1783C98.144 90.0073 98.5281 89.3459 98.3571 88.701L90.4273 58.8062C90.2562 58.1613 89.5948 57.7772 88.95 57.9483L50.2146 68.2231Z" fill="#3A3A3A"/>
<path d="M44.263 64.7432C44.0065 63.776 44.5826 62.7838 45.5499 62.5273L90.179 50.6891C91.1463 50.4325 92.1384 51.0086 92.395 51.9759L94.5925 60.2605C94.8491 61.2278 94.2729 62.2199 93.3057 62.4765L48.6766 74.3147C47.7093 74.5712 46.7172 73.9951 46.4606 73.0278L44.263 64.7432Z" fill="#3A3A3A"/>
<path fill-rule="evenodd" clip-rule="evenodd" d="M43.6792 64.8981C43.3371 63.6084 44.1053 62.2855 45.395 61.9434L90.0241 50.1053C91.3138 49.7632 92.6367 50.5313 92.9788 51.821L95.1763 60.1057C95.5184 61.3953 94.7502 62.7182 93.4605 63.0603L48.8314 74.8985C47.5417 75.2406 46.2189 74.4724 45.8768 73.1827L43.6792 64.8981ZM45.7047 63.111C45.0599 63.2821 44.6758 63.9435 44.8468 64.5884L47.0444 72.873C47.2154 73.5178 47.8769 73.9019 48.5217 73.7309L93.1508 61.8927C93.7957 61.7216 94.1798 61.0602 94.0087 60.4154L91.8112 52.1308C91.6401 51.4859 90.9787 51.1018 90.3339 51.2729L45.7047 63.111Z" fill="#3A3A3A"/>
<path d="M62.4609 58.0413L73.266 55.1751L76.3927 66.9625L65.5876 69.8287L62.4609 58.0413Z" fill="black"/>
<path fill-rule="evenodd" clip-rule="evenodd" d="M61.7222 57.6123L73.695 54.4365L77.1314 67.3915L65.1586 70.5673L61.7222 57.6123ZM63.1995 58.4702L66.0165 69.09L75.654 66.5336L72.8371 55.9138L63.1995 58.4702Z" fill="#3A3A3A"/>
<path fill-rule="evenodd" clip-rule="evenodd" d="M63.2796 51.5466C65.2304 52.4578 66.6533 54.1741 67.488 55.6378C67.9456 56.4402 67.3387 57.3491 66.4881 57.3673C63.4027 57.4331 59.4324 57.3171 56.9051 56.731C56.27 56.5837 55.6954 56.4001 55.2389 56.166C54.7983 55.9401 54.3701 55.6175 54.1845 55.1404C53.9797 54.614 54.1365 54.0896 54.4671 53.6391C54.7879 53.2019 55.3149 52.7659 56.0261 52.3178C58.8141 50.5615 61.2859 50.6153 63.2796 51.5466ZM62.7684 52.6411C61.1649 51.8921 59.1274 51.7917 56.67 53.3399C56.0086 53.7565 55.63 54.0962 55.441 54.3537C55.2661 54.592 55.3025 54.6831 55.3098 54.7012C55.31 54.7016 55.3101 54.702 55.3103 54.7024C55.3352 54.7666 55.4421 54.9127 55.7901 55.0911C56.122 55.2613 56.5892 55.4177 57.178 55.5542C59.529 56.0995 63.3293 56.2235 66.3953 56.161C65.6293 54.8446 64.3838 53.3957 62.7684 52.6411Z" fill="#3A3A3A"/>
<path fill-rule="evenodd" clip-rule="evenodd" d="M68.355 50.2002C67.1123 51.9586 66.7271 54.1544 66.7276 55.8394C66.7279 56.7632 67.7055 57.2517 68.4532 56.8459C71.1657 55.3739 74.5565 53.3053 76.461 51.5435C76.9396 51.1008 77.3477 50.6566 77.6281 50.227C77.8988 49.8124 78.1108 49.32 78.0356 48.8136C77.9525 48.255 77.5565 47.8772 77.0461 47.6498C76.5507 47.4291 75.8769 47.3116 75.0371 47.2749C71.7452 47.1313 69.625 48.4032 68.355 50.2002ZM69.3415 50.8974C70.3629 49.4522 72.0828 48.3552 74.9844 48.4818C75.7654 48.5158 76.2626 48.6232 76.5544 48.7532C76.8244 48.8735 76.8379 48.9706 76.8405 48.99C76.8406 48.9904 76.8407 48.9909 76.8407 48.9912C76.8508 49.0594 76.8304 49.2392 76.6167 49.5666C76.4127 49.8789 76.0844 50.2464 75.6407 50.6568C73.8691 52.2956 70.6299 54.2869 67.936 55.7522C67.9488 54.2292 68.3124 52.3535 69.3415 50.8974Z" fill="#3A3A3A"/>
<path d="M37.2578 103.885L37.1579 109.254C37.1519 109.581 36.9641 109.877 36.6712 110.022L32.946 111.863C32.1446 112.259 32.3841 113.46 33.2762 113.519L37.4987 113.795C37.807 113.816 38.0817 113.997 38.2213 114.273L40.3082 118.391C40.7005 119.166 41.8595 118.957 41.9567 118.094L42.4945 113.32C42.526 113.04 42.6909 112.792 42.9372 112.655L46.3004 110.778C47.058 110.356 46.8037 109.207 45.9385 109.143L42.1819 108.867C41.8803 108.845 41.6115 108.669 41.4713 108.401L38.9065 103.497C38.487 102.694 37.2747 102.98 37.2578 103.885Z" fill="black"/>
<path d="M309.953 164.395L307.545 167.541C307.399 167.732 307.16 167.824 306.926 167.779L303.95 167.211C303.31 167.088 302.924 167.909 303.418 168.342L305.757 170.391C305.927 170.54 306.008 170.771 305.969 170.997L305.382 174.375C305.272 175.01 306.038 175.403 306.472 174.934L308.875 172.338C309.016 172.185 309.22 172.112 309.424 172.14L312.204 172.526C312.831 172.613 313.185 171.817 312.709 171.393L310.641 169.553C310.475 169.405 310.396 169.18 310.432 168.958L311.084 164.9C311.19 164.236 310.359 163.865 309.953 164.395Z" fill="black"/>
</svg>
