<svg width="206" height="253" viewBox="0 0 206 253" fill="none" xmlns="http://www.w3.org/2000/svg">
<path d="M55.3438 242.164H107.402H139.168C153.607 242.164 167.53 236.787 178.23 227.078L191.452 215.08C209.384 198.809 210.053 170.816 192.919 153.704C186.344 147.138 182.11 138.587 180.87 129.372L176.713 98.4885C174.84 84.5684 168.006 71.7951 157.471 62.5221L147.739 53.9559C127.533 36.1699 96.4811 39.3826 80.3328 60.9298L79.4598 62.0946C71.2896 72.9963 58.4722 79.4115 44.8609 79.4115C22.8335 79.4115 4.32363 95.9866 1.87117 117.908L0.977193 125.898C-0.30553 137.364 2.23281 148.932 8.19712 158.803L16.7602 172.975C21.4852 180.795 22.9964 190.145 20.9757 199.059C15.9695 221.141 32.7312 242.164 55.3438 242.164Z" fill="#EEEEEE"/>
<path d="M16.931 87.2426L13.5221 54.3033H41.12C41.585 54.3033 41.9798 54.6401 42.0478 55.0948L46.6946 86.1803C46.7783 86.74 46.3394 87.2426 45.7668 87.2426H16.931Z" fill="white"/>
<path fill-rule="evenodd" clip-rule="evenodd" d="M13.0028 53.8399H41.12C41.8176 53.8399 42.4098 54.3451 42.5118 55.027L47.1586 86.1125C47.2841 86.9522 46.6257 87.706 45.7669 87.706H16.5076L13.0028 53.8399ZM14.0415 54.7668L17.3545 86.7791H45.7669C46.0532 86.7791 46.2726 86.5279 46.2308 86.248L41.584 55.1625C41.55 54.9352 41.3526 54.7668 41.12 54.7668H14.0415Z" fill="#3A3A3A"/>
<path d="M24.6249 59.5338C24.232 60.4055 23.1984 60.7974 22.3163 60.4091C21.4342 60.0208 21.0377 58.9993 21.4306 58.1276C21.8235 57.2559 22.8572 56.864 23.7393 57.2523C24.6213 57.6406 25.0179 58.6621 24.6249 59.5338Z" fill="black"/>
<path d="M35.2304 59.5338C34.8375 60.4055 33.8038 60.7974 32.9217 60.4091C32.0396 60.0208 31.6431 58.9993 32.0361 58.1276C32.429 57.2559 33.4626 56.864 34.3447 57.2523C35.2268 57.6406 35.6233 58.6621 35.2304 59.5338Z" fill="black"/>
<path d="M8.50073 87.2426H16.9312L13.5223 54.3033H11.7178C11.2367 54.3033 10.8337 54.663 10.7848 55.1359L7.56771 86.2214C7.51117 86.7678 7.94501 87.2426 8.50073 87.2426Z" fill="#3A3A3A"/>
<path fill-rule="evenodd" clip-rule="evenodd" d="M11.7178 54.7668C11.4773 54.7668 11.2757 54.9466 11.2513 55.183L8.03422 86.2686C8.00595 86.5417 8.22287 86.7791 8.50073 86.7791H16.4118L13.0988 54.7668H11.7178ZM10.3182 55.0887C10.3917 54.3794 10.9962 53.8399 11.7178 53.8399H13.9457L17.4505 87.706H8.50073C7.66715 87.706 7.01638 86.9938 7.10119 86.1743L10.3182 55.0887Z" fill="#3A3A3A"/>
<path fill-rule="evenodd" clip-rule="evenodd" d="M28.2941 46.8171C25.7839 46.8171 23.7489 48.8281 23.7489 51.3088V58.0464C23.7489 58.4599 23.4098 58.795 22.9914 58.795C22.573 58.795 22.2339 58.4599 22.2339 58.0464V51.3088C22.2339 48.0012 24.9472 45.3199 28.2941 45.3199C31.6411 45.3199 34.3544 48.0012 34.3544 51.3088V58.0464C34.3544 58.4599 34.0152 58.795 33.5968 58.795C33.1785 58.795 32.8393 58.4599 32.8393 58.0464V51.3088C32.8393 48.8281 30.8044 46.8171 28.2941 46.8171Z" fill="#3A3A3A"/>
<path d="M127.395 47.0878C121.481 60.4129 105.925 66.403 92.6501 60.4671C79.3749 54.5311 73.4072 38.9169 79.3209 25.5918C85.2347 12.2667 100.79 6.27664 114.066 12.2126C127.341 18.1486 133.308 33.7627 127.395 47.0878Z" fill="white"/>
<path fill-rule="evenodd" clip-rule="evenodd" d="M113.855 12.6871C100.841 6.86794 85.5912 12.7402 79.7938 25.8032C73.9964 38.8662 79.8467 54.1732 92.8608 59.9924C105.875 65.8116 121.125 59.9394 126.922 46.8764C132.719 33.8134 126.869 18.5063 113.855 12.6871ZM78.8482 25.3804C84.8783 11.7932 100.74 5.68526 114.276 11.738C127.813 17.7907 133.898 33.712 127.868 47.2992C121.838 60.8864 105.976 66.9943 92.4395 60.9416C78.9032 54.8889 72.8182 38.9676 78.8482 25.3804Z" fill="#3A3A3A"/>
<path d="M107.126 44.1347C107.126 42.9928 106.851 42.0967 106.302 41.4463C105.752 40.7959 104.787 40.1817 103.407 39.6035C102.026 39.0254 100.751 38.44 99.582 37.8474C98.4127 37.2548 97.4055 36.5683 96.5602 35.7878C95.7149 35.0073 95.0669 34.104 94.6161 33.0778C94.1653 32.0516 93.9399 30.8086 93.9399 29.3488C93.9399 26.9062 94.7429 24.8972 96.3489 23.3217C97.7639 21.9209 99.5946 21.0362 101.841 20.6677C102.367 20.5814 102.773 20.1384 102.773 19.6034V17.0112C102.773 16.4374 103.236 15.9722 103.808 15.9722H105.098C105.669 15.9722 106.133 16.4374 106.133 17.0112V19.7393C106.133 20.2533 106.509 20.6849 107.008 20.7977C109.173 21.2865 110.903 22.323 112.197 23.9071C113.486 25.4556 114.213 27.3714 114.379 29.6546C114.421 30.227 113.953 30.693 113.381 30.693H108.309C107.737 30.693 107.282 30.2263 107.224 29.6554C107.12 28.6466 106.855 27.8362 106.429 27.2242C105.865 26.4148 105.062 26.0101 104.02 26.0101C103.09 26.0101 102.364 26.3136 101.843 26.9206C101.336 27.5132 101.082 28.3371 101.082 29.3922C101.082 30.4617 101.378 31.3145 101.97 31.9504C102.562 32.5719 103.512 33.1717 104.823 33.7499C106.133 34.3136 107.365 34.9062 108.521 35.5277C109.69 36.1347 110.697 36.8285 111.542 37.6089C112.388 38.3894 113.05 39.3 113.529 40.3406C114.008 41.3813 114.247 42.6315 114.247 44.0913C114.247 46.5628 113.479 48.5791 111.944 50.1401C110.606 51.5125 108.838 52.3821 106.64 52.749C106.115 52.8367 105.71 53.2792 105.71 53.8136V56.1904C105.71 56.7643 105.247 57.2295 104.675 57.2295H103.385C102.814 57.2295 102.35 56.7643 102.35 56.1904V53.7831C102.35 53.2524 101.951 52.811 101.429 52.7245C98.8032 52.2893 96.7506 51.2543 95.2712 49.6197C93.8305 48.0015 93.0249 45.934 92.8543 43.4172C92.8155 42.8446 93.2834 42.3786 93.8551 42.3786H98.9061C99.4778 42.3786 99.9327 42.8453 99.9931 43.416C100.115 44.5641 100.449 45.4758 100.998 46.1509C101.716 47.0037 102.731 47.43 104.041 47.43C104.999 47.43 105.752 47.141 106.302 46.5628C106.851 45.9703 107.126 45.1609 107.126 44.1347Z" fill="black"/>
<path d="M163.072 75.7437C163.54 74.9496 163.718 74.2135 163.605 73.5354C163.493 72.8572 163.078 72.0334 162.361 71.0639C161.644 70.0943 161.003 69.1632 160.438 68.2705C159.873 67.3777 159.458 66.4863 159.195 65.5961C158.931 64.7058 158.854 63.8113 158.963 62.9123C159.073 62.0134 159.427 61.0563 160.026 60.0411C161.029 58.3424 162.409 57.2753 164.165 56.8398C165.743 56.4412 167.397 56.5889 169.13 57.2829C169.483 57.4242 169.893 57.3002 170.086 56.972L171.246 55.0068C171.454 54.6546 171.907 54.5383 172.258 54.7469L173.31 55.3725C173.66 55.5811 173.776 56.0357 173.569 56.3878L172.355 58.4437C172.169 58.7589 172.243 59.161 172.51 59.4104C173.841 60.6524 174.631 62.1027 174.88 63.7613C175.139 65.3963 174.841 67.057 173.984 68.7433C173.799 69.108 173.344 69.2234 172.993 69.0147L169.326 66.8344C168.976 66.6258 168.864 66.1731 169.04 65.8039C169.412 65.024 169.576 64.3217 169.531 63.6969C169.473 62.9024 169.085 62.2909 168.364 61.8624C167.721 61.4802 167.095 61.3931 166.486 61.601C165.892 61.8046 165.379 62.2733 164.946 63.0071C164.506 63.7509 164.361 64.4655 164.509 65.151C164.663 65.8264 165.074 66.6344 165.742 67.575C166.416 68.5055 167.025 69.4243 167.568 70.3313C168.127 71.2341 168.539 72.1306 168.803 73.0208C169.067 73.911 169.151 74.8164 169.054 75.737C168.958 76.6576 168.611 77.6255 168.012 78.6407C166.997 80.3595 165.639 81.4461 163.937 81.9004C162.425 82.3114 160.82 82.1792 159.121 81.5038C158.768 81.3635 158.359 81.4876 158.166 81.8154L157.094 83.6307C156.886 83.9829 156.434 84.0992 156.083 83.8906L155.031 83.265C154.68 83.0564 154.564 82.6018 154.772 82.2497L155.855 80.4139C156.048 80.0883 155.963 79.6717 155.673 79.43C153.998 78.0348 152.982 76.4532 152.626 74.6854C152.289 72.9403 152.596 71.142 153.546 69.2905C153.733 68.9267 154.188 68.8112 154.539 69.0198L158.191 71.1915C158.542 71.4001 158.653 71.8529 158.478 72.2225C158.059 73.1062 157.903 73.9077 158.008 74.627C158.155 75.5153 158.681 76.2288 159.586 76.7673C160.249 77.161 160.888 77.2698 161.505 77.0936C162.128 76.9073 162.65 76.4573 163.072 75.7437Z" fill="#3A3A3A"/>
<path d="M31.497 112.359C34.6771 122.219 42.0744 149.854 45.3755 162.439C37.7305 164.891 24.2762 167.153 18.5047 167.978C14.707 146.562 7.0676 126.278 3.72263 118.814C6.50699 116.779 23.399 113.663 31.497 112.359Z" fill="#3A3A3A"/>
<path d="M38.4277 111.326C39.5677 121.626 41.2777 150.191 41.9902 163.185C34.0102 164.044 20.3777 163.543 14.559 163.185C15.129 141.44 11.709 120.029 9.92773 112.041C13.0627 110.611 30.234 110.969 38.4277 111.326Z" fill="black"/>
<path d="M39.623 164.712C40.8061 165.693 44.4409 173.073 46.1103 176.64C53.786 174.334 68.4091 168.981 65.4965 166.014C61.8556 162.305 55.0843 151.347 52.6924 142.471C50.7788 135.37 43.2669 130.115 39.7501 128.376C40.5653 140.653 41.2778 151.741 41.634 154.244C40.6672 153.959 30.2333 147.447 28.4704 147.19C26.7076 146.934 25.4299 151.302 28.6161 155.668C31.8023 160.034 38.144 163.485 39.623 164.712Z" fill="#EFCB96"/>
<path d="M72.637 244.82C77.6888 250.526 89.7338 244.413 95.1248 240.643C101.937 236.75 111.895 228.191 110.784 223.91C109.673 219.629 72.4906 165.44 67.1732 163.872C61.8558 162.305 43.4938 174.815 41.846 177.755C40.1982 180.696 66.3221 237.687 72.637 244.82Z" fill="black"/>
<path d="M33.3373 138.598C31.8424 141.967 27.9099 143.482 24.554 141.981C21.1981 140.48 19.6895 136.532 21.1845 133.163C22.6794 129.794 26.6119 128.279 29.9678 129.78C33.3237 131.281 34.8323 135.229 33.3373 138.598Z" fill="#3A3A3A"/>
<path d="M184.519 104.787C185.691 104.053 187.233 104.411 187.964 105.587L201.161 126.815C201.892 127.991 201.535 129.539 200.364 130.273L156.856 157.535C155.684 158.269 154.142 157.911 153.411 156.735L140.214 135.507C139.483 134.331 139.84 132.783 141.011 132.049L184.519 104.787Z" fill="white"/>
<path fill-rule="evenodd" clip-rule="evenodd" d="M184.078 104.077C185.64 103.099 187.696 103.576 188.671 105.144L201.868 126.372C202.843 127.94 202.367 130.004 200.805 130.983L157.297 158.245C155.735 159.223 153.679 158.746 152.704 157.178L139.507 135.95C138.532 134.382 139.008 132.318 140.57 131.339L184.078 104.077ZM187.257 106.03C186.77 105.246 185.741 105.007 184.96 105.497L141.452 132.759C140.672 133.248 140.434 134.28 140.921 135.064L154.118 156.292C154.605 157.076 155.634 157.315 156.415 156.825L199.923 129.563C200.703 129.074 200.941 128.042 200.454 127.258L187.257 106.03Z" fill="#3A3A3A"/>
<path fill-rule="evenodd" clip-rule="evenodd" d="M174.583 139.682L165.151 124.512L166.565 123.626L175.997 138.796L174.583 139.682ZM169.143 143.09L159.711 127.92L161.125 127.034L170.557 142.204L169.143 143.09ZM164.005 146.31L154.574 131.139L155.988 130.253L165.419 145.424L164.005 146.31ZM158.263 149.908L148.832 134.737L150.246 133.851L159.677 149.022L158.263 149.908Z" fill="#EEEEEE"/>
<path d="M155.147 155.182C154.835 156.691 150.029 163.362 147.666 166.509C153.279 172.249 164.82 182.734 166.074 178.763C167.643 173.8 174.136 162.674 180.84 156.407C186.202 151.395 187.326 142.273 187.217 138.338C179.983 143.25 165.476 152.875 165.316 152.082C165.116 151.09 165.975 138.788 165.378 137.103C164.781 135.419 160.337 136.322 157.977 141.189C155.618 146.055 155.537 153.297 155.147 155.182Z" fill="#EFCB96"/>
<path d="M99.9814 221.88C97.3117 229.029 108.318 236.871 114.156 239.898C120.764 244.13 132.951 248.977 136.205 245.993C139.458 243.009 169.844 184.706 168.743 179.253C167.643 173.8 148.053 163.334 144.693 163.243C141.334 163.153 103.319 212.944 99.9814 221.88Z" fill="black"/>
<path d="M189.768 114.568L191.545 111.347L197.958 121.662L194.295 121.85L189.768 114.568Z" fill="#3A3A3A"/>
<path d="M179.452 115.551C180.624 114.817 182.166 115.175 182.897 116.351L189.681 127.262C190.412 128.438 190.055 129.987 188.884 130.721L182.85 134.501C181.679 135.235 180.137 134.877 179.406 133.701L172.622 122.789C171.891 121.613 172.248 120.065 173.419 119.331L179.452 115.551Z" fill="black"/>
<path d="M88.113 93.5909C88.6749 92.3246 90.1529 91.7553 91.4142 92.3194L114.443 102.618C115.704 103.182 116.271 104.666 115.709 105.933L99.8162 141.75C99.2543 143.016 97.7763 143.585 96.515 143.021L73.4864 132.722C72.2251 132.158 71.6581 130.674 72.22 129.408L88.113 93.5909Z" fill="black"/>
<path d="M93.1549 93.0978L98.9041 95.669L80.9763 136.072L75.2271 133.501L93.1549 93.0978Z" fill="#3A3A3A"/>
<path d="M108.348 111.652C107.5 113.565 105.267 114.424 103.362 113.572C101.457 112.72 100.6 110.479 101.449 108.567C102.298 106.654 104.53 105.794 106.435 106.646C108.34 107.498 109.197 109.739 108.348 111.652Z" fill="white"/>
<path d="M101.25 116.778C101.392 116.46 101.764 116.316 102.081 116.458V116.458C102.399 116.6 102.541 116.974 102.4 117.293L93.6922 136.917C93.5507 137.236 93.1787 137.379 92.8612 137.237V137.237C92.5436 137.095 92.4009 136.721 92.5423 136.402L101.25 116.778Z" fill="white"/>
<path d="M109.885 108.189C109.036 110.101 106.804 110.961 104.899 110.109C102.994 109.257 102.137 107.016 102.986 105.103C103.835 103.191 106.067 102.331 107.972 103.183C109.877 104.035 110.734 106.276 109.885 108.189Z" fill="#3A3A3A"/>
<path d="M94.0026 147.807C94.5726 149.237 94.2401 157.463 94.0026 161.397C101.84 163.066 117.23 165.403 116.09 161.397C114.665 156.39 113.953 143.515 116.09 134.574C117.8 127.421 113.359 119.552 111.103 116.333C107.184 124.917 102.909 134.931 100.771 139.581C100.059 138.865 94.0026 128.136 92.5776 127.063C91.1526 125.99 87.9463 129.209 88.6588 134.574C89.3713 139.938 93.2901 146.018 94.0026 147.807Z" fill="#EFCB96"/>
<path d="M84.7399 234C86.4499 241.439 99.9399 241.869 106.471 241.153C114.308 241.013 127.134 238.292 128.203 234C129.271 229.709 122.503 164.259 118.584 160.324C114.665 156.39 92.5774 158.536 89.7274 160.324C86.8774 162.113 82.6024 224.701 84.7399 234Z" fill="black"/>
</svg>
