<svg width="30" height="21" viewBox="0 0 30 21" fill="none" xmlns="http://www.w3.org/2000/svg">
<path d="M28.3951 18.2703H12.999C12.999 18.2703 13.0774 15.5718 16.5485 15.5718C20.0196 15.5718 22.2479 15.639 23.2556 14.105C25.2039 14.7208 26.7827 14.8104 27.5553 15.639C28.5295 16.6691 28.3951 18.2703 28.3951 18.2703Z" fill="white"/>
<path d="M21.4415 13.3882C21.4415 13.3882 20.5458 14.0937 19.9411 13.9705C19.3253 13.8473 13.6259 11.2048 13.6259 11.2048C9.72932 13.6682 5.29525 12.9851 1.46582 10.7233C1.63378 10.1187 1.83533 9.70437 2.10406 9.60359C3.38053 9.11092 3.48131 11.1376 8.08334 11.1376C12.6854 11.1376 12.551 9.60359 13.346 9.60359C14.1074 9.60359 18.7542 12.1453 21.4415 13.3882Z" fill="white"/>
<path d="M23.267 14.1049C22.2705 15.6389 20.0423 15.5717 16.5599 15.5717C13.0776 15.5717 13.0104 18.2702 13.0104 18.2702H5.78829C5.70991 15.6613 4.51181 13.6682 1.09668 12.862C1.18626 12.0558 1.30943 11.3056 1.46619 10.7233C5.29561 12.9852 9.74088 13.6682 13.6263 11.2048C13.6263 11.2048 19.3256 13.8473 19.9415 13.9705C20.5573 14.0937 21.4419 13.3882 21.4419 13.3882C21.5427 13.433 21.6435 13.489 21.7442 13.5226C22.2705 13.769 22.7744 13.9481 23.267 14.1049Z" fill="#62B2FC"/>
<path opacity="0.1" d="M28.396 18.2702C28.396 18.2702 28.4072 18.1583 28.4072 17.9791C28.4072 17.9679 28.4072 17.9567 28.4072 17.9343C28.4072 17.9231 28.4072 17.9119 28.4072 17.8895C28.4072 17.8671 28.4072 17.8559 28.4072 17.8335C28.4072 17.7888 28.4072 17.744 28.396 17.688C28.396 17.6544 28.396 17.6208 28.3848 17.5872C28.3848 17.576 28.3848 17.576 28.3848 17.5648C28.3848 17.5424 28.3848 17.52 28.3736 17.4976C28.3624 17.4193 28.3512 17.3297 28.34 17.2513C28.2504 16.7362 28.0377 16.1092 27.5674 15.6053C26.7948 14.7767 25.216 14.6872 23.2677 14.0713C22.831 13.9369 22.3719 13.769 21.9128 13.5674C20.7371 14.4072 18.7664 14.4744 15.9447 14.4744C12.9327 14.4744 12.3169 16.6578 12.2049 17.2513H6.60631C6.42716 14.9223 4.84836 12.5485 1.25407 11.6975C1.19809 12.0558 1.1421 12.4477 1.09731 12.8508C4.06456 13.545 5.36343 15.1462 5.69934 17.2625H0.82858C0.817383 17.8783 0.817383 18.259 0.817383 18.259H27.3994C27.4666 18.7293 27.433 19.0652 27.433 19.0652C27.433 19.0652 27.5786 19.5243 27.5898 19.9722H28.0824C28.911 19.9834 28.396 18.2702 28.396 18.2702ZM13.2798 17.2737C13.6493 16.5011 14.5227 15.5717 16.5606 15.5717C19.2367 15.5717 21.1738 15.6165 22.3831 14.9223C24.2978 15.5157 25.843 15.6165 26.6044 16.4339C26.8396 16.6914 27.0187 16.9826 27.1419 17.2737H13.2798Z" fill="#434A54"/>
<path d="M5.78892 18.2703H0.817383C0.817383 18.2703 0.817383 15.3254 1.09731 12.8621C4.52364 13.6683 5.72174 15.6725 5.78892 18.2703Z" fill="white"/>
<path d="M20.3348 18.2703C19.2262 18.2703 18.4648 19.9834 18.4648 19.9834H1.2772C0.605374 19.9834 0.81812 18.2703 0.81812 18.2703H20.3348Z" fill="white"/>
<path opacity="0.1" d="M20.3339 18.2702C19.2254 18.2702 18.464 19.9833 18.464 19.9833H16.874C16.874 19.9833 17.6354 18.2702 18.7439 18.2702H20.3339Z" fill="#434A54"/>
<path d="M28.0822 19.9834H18.4639C18.4639 19.9834 19.2253 18.2703 20.3338 18.2703H28.3957C28.3957 18.2703 28.9108 19.9834 28.0822 19.9834Z" fill="white"/>
<path d="M21.4415 13.3882C21.4415 13.3882 20.5458 14.0937 19.9411 13.9705C19.3253 13.8473 13.6259 11.2048 13.6259 11.2048C9.72932 13.6682 5.29525 12.9851 1.46582 10.7233C1.63378 10.1187 1.83533 9.70437 2.10406 9.60359C3.38053 9.11092 3.48131 11.1376 8.08334 11.1376C12.6854 11.1376 12.551 9.60359 13.346 9.60359C14.1074 9.60359 18.7542 12.1453 21.4415 13.3882Z" stroke="#434A54" stroke-width="0.895772" stroke-miterlimit="10" stroke-linecap="round" stroke-linejoin="round"/>
<path d="M23.267 14.1049C22.2705 15.6389 20.0423 15.5717 16.5599 15.5717C13.0776 15.5717 13.0104 18.2702 13.0104 18.2702H5.78829C5.70991 15.6613 4.51181 13.6682 1.09668 12.862C1.18626 12.0558 1.30943 11.3056 1.46619 10.7233C5.29561 12.9852 9.74088 13.6682 13.6263 11.2048C13.6263 11.2048 19.3256 13.8473 19.9415 13.9705C20.5573 14.0937 21.4419 13.3882 21.4419 13.3882C21.5427 13.433 21.6435 13.489 21.7442 13.5226C22.2705 13.769 22.7744 13.9481 23.267 14.1049Z" stroke="#434A54" stroke-width="0.895772" stroke-miterlimit="10" stroke-linecap="round" stroke-linejoin="round"/>
<path d="M5.78892 18.2703H0.817383C0.817383 18.2703 0.817383 15.3254 1.09731 12.8621C4.52364 13.6683 5.72174 15.6725 5.78892 18.2703Z" stroke="#434A54" stroke-width="0.895772" stroke-miterlimit="10" stroke-linecap="round" stroke-linejoin="round"/>
<path d="M28.3951 18.2703H12.999C12.999 18.2703 13.0774 15.5718 16.5485 15.5718C20.0196 15.5718 22.2479 15.639 23.2556 14.105C25.2039 14.7208 26.7827 14.8104 27.5553 15.639C28.5295 16.6691 28.3951 18.2703 28.3951 18.2703Z" stroke="#434A54" stroke-width="0.895772" stroke-miterlimit="10" stroke-linecap="round" stroke-linejoin="round"/>
<path d="M20.3348 18.2703C19.2262 18.2703 18.4648 19.9834 18.4648 19.9834H1.2772C0.605374 19.9834 0.81812 18.2703 0.81812 18.2703H20.3348Z" stroke="#434A54" stroke-width="0.895772" stroke-miterlimit="10" stroke-linecap="round" stroke-linejoin="round"/>
<path d="M28.0822 19.9834H18.4639C18.4639 19.9834 19.2253 18.2703 20.3338 18.2703H28.3957C28.3957 18.2703 28.9108 19.9834 28.0822 19.9834Z" stroke="#434A54" stroke-width="0.895772" stroke-miterlimit="10" stroke-linecap="round" stroke-linejoin="round"/>
<path d="M13.9854 12.358L15.6649 9.43555" stroke="#434A54" stroke-width="0.895772" stroke-miterlimit="10" stroke-linecap="round" stroke-linejoin="round"/>
<path d="M15.665 13.3548L17.3334 10.4211" stroke="#434A54" stroke-width="0.895772" stroke-miterlimit="10" stroke-linecap="round" stroke-linejoin="round"/>
<path d="M17.5127 14.329L19.1811 11.4065" stroke="#434A54" stroke-width="0.895772" stroke-miterlimit="10" stroke-linecap="round" stroke-linejoin="round"/>
</svg>
