<svg width="29" height="27" viewBox="0 0 29 27" fill="none" xmlns="http://www.w3.org/2000/svg">
<path d="M28.4506 9.73807L23.7478 12.3246L21.7659 9.06625V26.3658H7.36634V9.06625L5.38444 12.3134L0.681641 9.73807C0.681641 9.73807 2.19326 6.28935 3.08903 4.88971C3.9736 3.49006 4.81339 2.21359 6.53775 1.54176L10.0761 0.970703C10.0761 0.970703 11.207 4.29626 14.5661 4.29626C17.9253 4.29626 19.0562 0.970703 19.0562 0.970703L22.5945 1.54176C24.3188 2.21359 25.1586 3.7252 26.0432 5.11365C26.939 6.51329 28.4506 9.73807 28.4506 9.73807Z" fill="white"/>
<path opacity="0.1" d="M28.4511 9.73802L23.7483 12.3246L22.9645 11.0369L26.4916 9.09979C26.4916 9.09979 24.98 5.87501 24.0842 4.48656C23.3676 3.35565 22.6846 2.15755 21.5312 1.38495L22.595 1.55291C24.3193 2.22474 25.1591 3.73635 26.0437 5.1248C26.9395 6.51324 28.4511 9.73802 28.4511 9.73802Z" fill="#434A54"/>
<path d="M19.0563 0.970703C19.0563 0.970703 17.9254 4.29626 14.5662 4.29626C11.2071 4.29626 10.0762 0.970703 10.0762 0.970703C13.0658 1.92246 16.0666 1.92246 19.0563 0.970703Z" fill="white"/>
<path opacity="0.1" d="M20.1758 11.0928C20.1758 9.54764 21.7546 9.06616 21.7546 9.06616V26.3658H7.36621V25.1117C7.36621 25.1117 18.5186 25.1117 19.6159 24.2047C20.7132 23.2977 20.1758 12.6381 20.1758 11.0928Z" fill="#434A54"/>
<path opacity="0.15" d="M19.0563 0.970703C19.0563 0.970703 17.9254 4.29626 14.5662 4.29626C11.2071 4.29626 10.0762 0.970703 10.0762 0.970703C13.0658 1.92246 16.0666 1.92246 19.0563 0.970703Z" fill="#434A54"/>
<path d="M28.4506 9.73807L23.7478 12.3246L21.7659 9.06624V26.3658H7.36634V9.06624L5.38444 12.3134L0.681641 9.73807C0.681641 9.73807 2.19326 6.28935 3.08903 4.88971C3.9736 3.49006 4.81339 2.21359 6.53775 1.54176L10.0761 0.970703C10.0761 0.970703 11.207 4.29626 14.5661 4.29626C17.9253 4.29626 19.0562 0.970703 19.0562 0.970703L22.5945 1.54176C24.3188 2.21359 25.1586 3.7252 26.0432 5.11365C26.939 6.51329 28.4506 9.73807 28.4506 9.73807Z" stroke="#434A54" stroke-width="0.895772" stroke-miterlimit="10" stroke-linecap="round" stroke-linejoin="round"/>
<path d="M19.0563 0.970703C19.0563 0.970703 17.9254 4.29626 14.5662 4.29626C11.2071 4.29626 10.0762 0.970703 10.0762 0.970703C13.0658 1.92246 16.0666 1.92246 19.0563 0.970703Z" stroke="#434A54" stroke-width="0.895772" stroke-miterlimit="10" stroke-linecap="round" stroke-linejoin="round"/>
</svg>
